<svg width="26" height="27" viewBox="0 0 26 27" fill="none" xmlns="http://www.w3.org/2000/svg">
<path d="M21.3699 10.8579C21.3699 10.5817 21.146 10.3579 20.8699 10.3579C20.5938 10.3579 20.3699 10.5817 20.3699 10.8579H21.3699ZM6.12437 10.8579C6.12437 10.5817 5.90051 10.3579 5.62437 10.3579C5.34823 10.3579 5.12437 10.5817 5.12437 10.8579H6.12437ZM19.3228 3.57252L19.4822 3.09861L19.3228 3.57252ZM15.3261 23.1397C15.6022 23.1397 15.8261 22.9158 15.8261 22.6397C15.8261 22.3635 15.6022 22.1397 15.3261 22.1397V23.1397ZM13.2471 17.9744H12.7471V18.9744H13.2471V17.9744ZM15.3261 18.9744C15.6022 18.9744 15.8261 18.7505 15.8261 18.4744C15.8261 18.1982 15.6022 17.9744 15.3261 17.9744V18.9744ZM13.2471 13.9678H12.7471V14.9678H13.2471V13.9678ZM15.3261 14.9678C15.6022 14.9678 15.8261 14.7439 15.8261 14.4678C15.8261 14.1916 15.6022 13.9678 15.3261 13.9678V14.9678ZM20.947 4.11885L21.1064 3.64494L20.947 4.11885ZM25.1935 21.1758L24.6946 21.2094L25.1935 21.1758ZM6.62437 26.2736H13.2471V25.2736H6.62437V26.2736ZM13.2471 26.2736H19.8699V25.2736H13.2471V26.2736ZM15.3789 0.5H11.1153V1.5H15.3789V0.5ZM13.601 5.53836L16.3333 2.80117L15.6256 2.0947L12.8933 4.83189L13.601 5.53836ZM13.601 4.83189L10.8687 2.0947L10.161 2.80117L12.8933 5.53836L13.601 4.83189ZM21.3699 24.7736V22.243H20.3699V24.7736H21.3699ZM24.1958 21.743H20.8699V22.743H24.1958V21.743ZM6.12437 24.7736V22.243H5.12437V24.7736H6.12437ZM2.40273 22.743H5.62437V21.743H2.40273V22.743ZM2.06635 8.32274L1.06155 19.421L2.05747 19.5112L3.06227 8.4129L2.06635 8.32274ZM1.06155 19.421L0.908842 21.1077L1.90477 21.1979L2.05747 19.5112L1.06155 19.421ZM6.12437 22.243V19.4661H5.12437V22.243H6.12437ZM6.12437 19.4661V10.8579H5.12437V19.4661H6.12437ZM1.55951 19.9661H5.62437V18.9661H1.55951V19.9661ZM21.3699 22.243V19.4661H20.3699V22.243H21.3699ZM20.8699 19.4661C21.3699 19.4661 21.3699 19.4661 21.3699 19.4661C21.3699 19.466 21.3699 19.466 21.3699 19.4659C21.3699 19.4658 21.3699 19.4657 21.3699 19.4656C21.3699 19.4655 21.3699 19.4653 21.3699 19.4652C21.3699 19.465 21.3699 19.4648 21.3699 19.4646C21.3699 19.4644 21.3699 19.4642 21.3699 19.464C21.3699 19.4637 21.3699 19.4635 21.3699 19.4632C21.3699 19.4629 21.3699 19.4626 21.3699 19.4623C21.3699 19.462 21.3699 19.4616 21.3699 19.4613C21.3699 19.4609 21.3699 19.4606 21.3699 19.4602C21.3699 19.4598 21.3699 19.4594 21.3699 19.4589C21.3699 19.4585 21.3699 19.458 21.3699 19.4576C21.3699 19.4571 21.3699 19.4566 21.3699 19.4561C21.3699 19.4556 21.3699 19.455 21.3699 19.4545C21.3699 19.4539 21.3699 19.4534 21.3699 19.4528C21.3699 19.4522 21.3699 19.4516 21.3699 19.451C21.3699 19.4503 21.3699 19.4497 21.3699 19.449C21.3699 19.4484 21.3699 19.4477 21.3699 19.447C21.3699 19.4463 21.3699 19.4455 21.3699 19.4448C21.3699 19.4441 21.3699 19.4433 21.3699 19.4425C21.3699 19.4417 21.3699 19.4409 21.3699 19.4401C21.3699 19.4393 21.3699 19.4385 21.3699 19.4376C21.3699 19.4368 21.3699 19.4359 21.3699 19.435C21.3699 19.4341 21.3699 19.4332 21.3699 19.4323C21.3699 19.4313 21.3699 19.4304 21.3699 19.4294C21.3699 19.4285 21.3699 19.4275 21.3699 19.4265C21.3699 19.4255 21.3699 19.4244 21.3699 19.4234C21.3699 19.4223 21.3699 19.4213 21.3699 19.4202C21.3699 19.4191 21.3699 19.418 21.3699 19.4169C21.3699 19.4158 21.3699 19.4147 21.3699 19.4135C21.3699 19.4124 21.3699 19.4112 21.3699 19.41C21.3699 19.4088 21.3699 19.4076 21.3699 19.4064C21.3699 19.4051 21.3699 19.4039 21.3699 19.4026C21.3699 19.4014 21.3699 19.4001 21.3699 19.3988C21.3699 19.3975 21.3699 19.3962 21.3699 19.3948C21.3699 19.3935 21.3699 19.3922 21.3699 19.3908C21.3699 19.3894 21.3699 19.388 21.3699 19.3866C21.3699 19.3852 21.3699 19.3838 21.3699 19.3823C21.3699 19.3809 21.3699 19.3794 21.3699 19.3779C21.3699 19.3765 21.3699 19.375 21.3699 19.3734C21.3699 19.3719 21.3699 19.3704 21.3699 19.3688C21.3699 19.3673 21.3699 19.3657 21.3699 19.3641C21.3699 19.3626 21.3699 19.3609 21.3699 19.3593C21.3699 19.3577 21.3699 19.3561 21.3699 19.3544C21.3699 19.3527 21.3699 19.3511 21.3699 19.3494C21.3699 19.3477 21.3699 19.346 21.3699 19.3442C21.3699 19.3425 21.3699 19.3408 21.3699 19.339C21.3699 19.3372 21.3699 19.3355 21.3699 19.3337C21.3699 19.3319 21.3699 19.33 21.3699 19.3282C21.3699 19.3264 21.3699 19.3245 21.3699 19.3227C21.3699 19.3208 21.3699 19.3189 21.3699 19.317C21.3699 19.3151 21.3699 19.3132 21.3699 19.3112C21.3699 19.3093 21.3699 19.3073 21.3699 19.3054C21.3699 19.3034 21.3699 19.3014 21.3699 19.2994C21.3699 19.2974 21.3699 19.2954 21.3699 19.2933C21.3699 19.2913 21.3699 19.2892 21.3699 19.2872C21.3699 19.2851 21.3699 19.283 21.3699 19.2809C21.3699 19.2788 21.3699 19.2766 21.3699 19.2745C21.3699 19.2724 21.3699 19.2702 21.3699 19.268C21.3699 19.2658 21.3699 19.2637 21.3699 19.2614C21.3699 19.2592 21.3699 19.257 21.3699 19.2548C21.3699 19.2525 21.3699 19.2503 21.3699 19.248C21.3699 19.2457 21.3699 19.2434 21.3699 19.2411C21.3699 19.2388 21.3699 19.2365 21.3699 19.2341C21.3699 19.2318 21.3699 19.2294 21.3699 19.227C21.3699 19.2247 21.3699 19.2223 21.3699 19.2198C21.3699 19.2174 21.3699 19.215 21.3699 19.2126C21.3699 19.2101 21.3699 19.2077 21.3699 19.2052C21.3699 19.2027 21.3699 19.2002 21.3699 19.1977C21.3699 19.1952 21.3699 19.1927 21.3699 19.1901C21.3699 19.1876 21.3699 19.185 21.3699 19.1825C21.3699 19.1799 21.3699 19.1773 21.3699 19.1747C21.3699 19.1721 21.3699 19.1695 21.3699 19.1668C21.3699 19.1642 21.3699 19.1615 21.3699 19.1589C21.3699 19.1562 21.3699 19.1535 21.3699 19.1508C21.3699 19.1481 21.3699 19.1454 21.3699 19.1426C21.3699 19.1399 21.3699 19.1372 21.3699 19.1344C21.3699 19.1316 21.3699 19.1288 21.3699 19.126C21.3699 19.1232 21.3699 19.1204 21.3699 19.1176C21.3699 19.1148 21.3699 19.1119 21.3699 19.1091C21.3699 19.1062 21.3699 19.1033 21.3699 19.1004C21.3699 19.0975 21.3699 19.0946 21.3699 19.0917C21.3699 19.0888 21.3699 19.0858 21.3699 19.0829C21.3699 19.0799 21.3699 19.0769 21.3699 19.074C21.3699 19.071 21.3699 19.068 21.3699 19.0649C21.3699 19.0619 21.3699 19.0589 21.3699 19.0558C21.3699 19.0528 21.3699 19.0497 21.3699 19.0466C21.3699 19.0436 21.3699 19.0405 21.3699 19.0374C21.3699 19.0343 21.3699 19.0311 21.3699 19.028C21.3699 19.0248 21.3699 19.0217 21.3699 19.0185C21.3699 19.0153 21.3699 19.0122 21.3699 19.0089C21.3699 19.0057 21.3699 19.0025 21.3699 18.9993C21.3699 18.9961 21.3699 18.9928 21.3699 18.9896C21.3699 18.9863 21.3699 18.983 21.3699 18.9797C21.3699 18.9764 21.3699 18.9731 21.3699 18.9698C21.3699 18.9665 21.3699 18.9631 21.3699 18.9598C21.3699 18.9564 21.3699 18.9531 21.3699 18.9497C21.3699 18.9463 21.3699 18.9429 21.3699 18.9395C21.3699 18.9361 21.3699 18.9326 21.3699 18.9292C21.3699 18.9258 21.3699 18.9223 21.3699 18.9188C21.3699 18.9154 21.3699 18.9119 21.3699 18.9084C21.3699 18.9049 21.3699 18.9014 21.3699 18.8978C21.3699 18.8943 21.3699 18.8908 21.3699 18.8872C21.3699 18.8836 21.3699 18.8801 21.3699 18.8765C21.3699 18.8729 21.3699 18.8693 21.3699 18.8657C21.3699 18.862 21.3699 18.8584 21.3699 18.8548C21.3699 18.8511 21.3699 18.8475 21.3699 18.8438C21.3699 18.8401 21.3699 18.8364 21.3699 18.8327C21.3699 18.829 21.3699 18.8253 21.3699 18.8216C21.3699 18.8178 21.3699 18.8141 21.3699 18.8103C21.3699 18.8066 21.3699 18.8028 21.3699 18.799C21.3699 18.7952 21.3699 18.7914 21.3699 18.7876C21.3699 18.7838 21.3699 18.78 21.3699 18.7761C21.3699 18.7723 21.3699 18.7684 21.3699 18.7645C21.3699 18.7607 21.3699 18.7568 21.3699 18.7529C21.3699 18.749 21.3699 18.7451 21.3699 18.7411C21.3699 18.7372 21.3699 18.7333 21.3699 18.7293C21.3699 18.7253 21.3699 18.7214 21.3699 18.7174C21.3699 18.7134 21.3699 18.7094 21.3699 18.7054C21.3699 18.7014 21.3699 18.6974 21.3699 18.6933C21.3699 18.6893 21.3699 18.6852 21.3699 18.6812C21.3699 18.6771 21.3699 18.673 21.3699 18.6689C21.3699 18.6648 21.3699 18.6607 21.3699 18.6566C21.3699 18.6525 21.3699 18.6484 21.3699 18.6442C21.3699 18.6401 21.3699 18.6359 21.3699 18.6317C21.3699 18.6276 21.3699 18.6234 21.3699 18.6192C21.3699 18.615 21.3699 18.6108 21.3699 18.6065C21.3699 18.6023 21.3699 18.5981 21.3699 18.5938C21.3699 18.5896 21.3699 18.5853 21.3699 18.581C21.3699 18.5767 21.3699 18.5724 21.3699 18.5681C21.3699 18.5638 21.3699 18.5595 21.3699 18.5552C21.3699 18.5509 21.3699 18.5465 21.3699 18.5422C21.3699 18.5378 21.3699 18.5334 21.3699 18.529C21.3699 18.5247 21.3699 18.5203 21.3699 18.5158C21.3699 18.5114 21.3699 18.507 21.3699 18.5026C21.3699 18.4981 21.3699 18.4937 21.3699 18.4892C21.3699 18.4848 21.3699 18.4803 21.3699 18.4758C21.3699 18.4713 21.3699 18.4668 21.3699 18.4623C21.3699 18.4578 21.3699 18.4533 21.3699 18.4487C21.3699 18.4442 21.3699 18.4397 21.3699 18.4351C21.3699 18.4305 21.3699 18.426 21.3699 18.4214C21.3699 18.4168 21.3699 18.4122 21.3699 18.4076C21.3699 18.403 21.3699 18.3983 21.3699 18.3937C21.3699 18.3891 21.3699 18.3844 21.3699 18.3797C21.3699 18.3751 21.3699 18.3704 21.3699 18.3657C21.3699 18.361 21.3699 18.3563 21.3699 18.3516C21.3699 18.3469 21.3699 18.3422 21.3699 18.3375C21.3699 18.3327 21.3699 18.328 21.3699 18.3232C21.3699 18.3184 21.3699 18.3137 21.3699 18.3089C21.3699 18.3041 21.3699 18.2993 21.3699 18.2945C21.3699 18.2897 21.3699 18.2849 21.3699 18.28C21.3699 18.2752 21.3699 18.2704 21.3699 18.2655C21.3699 18.2606 21.3699 18.2558 21.3699 18.2509C21.3699 18.246 21.3699 18.2411 21.3699 18.2362C21.3699 18.2313 21.3699 18.2264 21.3699 18.2215C21.3699 18.2165 21.3699 18.2116 21.3699 18.2067C21.3699 18.2017 21.3699 18.1967 21.3699 18.1918C21.3699 18.1868 21.3699 18.1818 21.3699 18.1768C21.3699 18.1718 21.3699 18.1668 21.3699 18.1618C21.3699 18.1568 21.3699 18.1517 21.3699 18.1467C21.3699 18.1416 21.3699 18.1366 21.3699 18.1315C21.3699 18.1264 21.3699 18.1214 21.3699 18.1163C21.3699 18.1112 21.3699 18.1061 21.3699 18.101C21.3699 18.0959 21.3699 18.0907 21.3699 18.0856C21.3699 18.0805 21.3699 18.0753 21.3699 18.0702C21.3699 18.065 21.3699 18.0598 21.3699 18.0546C21.3699 18.0495 21.3699 18.0443 21.3699 18.0391C21.3699 18.0339 21.3699 18.0287 21.3699 18.0234C21.3699 18.0182 21.3699 18.013 21.3699 18.0077C21.3699 18.0025 21.3699 17.9972 21.3699 17.9919C21.3699 17.9867 21.3699 17.9814 21.3699 17.9761C21.3699 17.9708 21.3699 17.9655 21.3699 17.9602C21.3699 17.9549 21.3699 17.9496 21.3699 17.9442C21.3699 17.9389 21.3699 17.9336 21.3699 17.9282C21.3699 17.9228 21.3699 17.9175 21.3699 17.9121C21.3699 17.9067 21.3699 17.9013 21.3699 17.8959C21.3699 17.8905 21.3699 17.8851 21.3699 17.8797C21.3699 17.8743 21.3699 17.8688 21.3699 17.8634C21.3699 17.858 21.3699 17.8525 21.3699 17.8471C21.3699 17.8416 21.3699 17.8361 21.3699 17.8306C21.3699 17.8251 21.3699 17.8197 21.3699 17.8141C21.3699 17.8086 21.3699 17.8031 21.3699 17.7976C21.3699 17.7921 21.3699 17.7865 21.3699 17.781C21.3699 17.7755 21.3699 17.7699 21.3699 17.7643C21.3699 17.7588 21.3699 17.7532 21.3699 17.7476C21.3699 17.742 21.3699 17.7364 21.3699 17.7308C21.3699 17.7252 21.3699 17.7196 21.3699 17.714C21.3699 17.7083 21.3699 17.7027 21.3699 17.697C21.3699 17.6914 21.3699 17.6857 21.3699 17.6801C21.3699 17.6744 21.3699 17.6687 21.3699 17.663C21.3699 17.6574 21.3699 17.6517 21.3699 17.646C21.3699 17.6402 21.3699 17.6345 21.3699 17.6288C21.3699 17.6231 21.3699 17.6173 21.3699 17.6116C21.3699 17.6058 21.3699 17.6001 21.3699 17.5943C21.3699 17.5886 21.3699 17.5828 21.3699 17.577C21.3699 17.5712 21.3699 17.5654 21.3699 17.5596C21.3699 17.5538 21.3699 17.548 21.3699 17.5422C21.3699 17.5364 21.3699 17.5305 21.3699 17.5247C21.3699 17.5188 21.3699 17.513 21.3699 17.5071C21.3699 17.5013 21.3699 17.4954 21.3699 17.4895C21.3699 17.4836 21.3699 17.4777 21.3699 17.4718C21.3699 17.4659 21.3699 17.46 21.3699 17.4541C21.3699 17.4482 21.3699 17.4423 21.3699 17.4363C21.3699 17.4304 21.3699 17.4244 21.3699 17.4185C21.3699 17.4125 21.3699 17.4066 21.3699 17.4006C21.3699 17.3946 21.3699 17.3886 21.3699 17.3827C21.3699 17.3767 21.3699 17.3707 21.3699 17.3647C21.3699 17.3586 21.3699 17.3526 21.3699 17.3466C21.3699 17.3406 21.3699 17.3345 21.3699 17.3285C21.3699 17.3225 21.3699 17.3164 21.3699 17.3103C21.3699 17.3043 21.3699 17.2982 21.3699 17.2921C21.3699 17.286 21.3699 17.28 21.3699 17.2739C21.3699 17.2678 21.3699 17.2616 21.3699 17.2555C21.3699 17.2494 21.3699 17.2433 21.3699 17.2372C21.3699 17.231 21.3699 17.2249 21.3699 17.2187C21.3699 17.2126 21.3699 17.2064 21.3699 17.2003C21.3699 17.1941 21.3699 17.1879 21.3699 17.1817C21.3699 17.1756 21.3699 17.1694 21.3699 17.1632C21.3699 17.157 21.3699 17.1507 21.3699 17.1445C21.3699 17.1383 21.3699 17.1321 21.3699 17.1259C21.3699 17.1196 21.3699 17.1134 21.3699 17.1071C21.3699 17.1009 21.3699 17.0946 21.3699 17.0883C21.3699 17.0821 21.3699 17.0758 21.3699 17.0695C21.3699 17.0632 21.3699 17.0569 21.3699 17.0506C21.3699 17.0443 21.3699 17.038 21.3699 17.0317C21.3699 17.0254 21.3699 17.0191 21.3699 17.0127C21.3699 17.0064 21.3699 17.0001 21.3699 16.9937C21.3699 16.9874 21.3699 16.981 21.3699 16.9747C21.3699 16.9683 21.3699 16.9619 21.3699 16.9555C21.3699 16.9492 21.3699 16.9428 21.3699 16.9364C21.3699 16.93 21.3699 16.9236 21.3699 16.9172C21.3699 16.9107 21.3699 16.9043 21.3699 16.8979C21.3699 16.8915 21.3699 16.885 21.3699 16.8786C21.3699 16.8722 21.3699 16.8657 21.3699 16.8593C21.3699 16.8528 21.3699 16.8463 21.3699 16.8399C21.3699 16.8334 21.3699 16.8269 21.3699 16.8204C21.3699 16.8139 21.3699 16.8074 21.3699 16.8009C21.3699 16.7944 21.3699 16.7879 21.3699 16.7814C21.3699 16.7749 21.3699 16.7684 21.3699 16.7618C21.3699 16.7553 21.3699 16.7488 21.3699 16.7422C21.3699 16.7357 21.3699 16.7291 21.3699 16.7226C21.3699 16.716 21.3699 16.7094 21.3699 16.7029C21.3699 16.6963 21.3699 16.6897 21.3699 16.6831C21.3699 16.6765 21.3699 16.6699 21.3699 16.6633C21.3699 16.6567 21.3699 16.6501 21.3699 16.6435C21.3699 16.6369 21.3699 16.6302 21.3699 16.6236C21.3699 16.617 21.3699 16.6103 21.3699 16.6037C21.3699 16.597 21.3699 16.5904 21.3699 16.5837C21.3699 16.5771 21.3699 16.5704 21.3699 16.5637C21.3699 16.5571 21.3699 16.5504 21.3699 16.5437C21.3699 16.537 21.3699 16.5303 21.3699 16.5236C21.3699 16.5169 21.3699 16.5102 21.3699 16.5035C21.3699 16.4968 21.3699 16.4901 21.3699 16.4833C21.3699 16.4766 21.3699 16.4699 21.3699 16.4631C21.3699 16.4564 21.3699 16.4497 21.3699 16.4429C21.3699 16.4362 21.3699 16.4294 21.3699 16.4226C21.3699 16.4159 21.3699 16.4091 21.3699 16.4023C21.3699 16.3955 21.3699 16.3888 21.3699 16.382C21.3699 16.3752 21.3699 16.3684 21.3699 16.3616C21.3699 16.3548 21.3699 16.348 21.3699 16.3412C21.3699 16.3343 21.3699 16.3275 21.3699 16.3207C21.3699 16.3139 21.3699 16.307 21.3699 16.3002C21.3699 16.2933 21.3699 16.2865 21.3699 16.2796C21.3699 16.2728 21.3699 16.2659 21.3699 16.2591C21.3699 16.2522 21.3699 16.2453 21.3699 16.2385C21.3699 16.2316 21.3699 16.2247 21.3699 16.2178C21.3699 16.2109 21.3699 16.204 21.3699 16.1971C21.3699 16.1902 21.3699 16.1833 21.3699 16.1764C21.3699 16.1695 21.3699 16.1626 21.3699 16.1557C21.3699 16.1487 21.3699 16.1418 21.3699 16.1349C21.3699 16.1279 21.3699 16.121 21.3699 16.1141C21.3699 16.1071 21.3699 16.1002 21.3699 16.0932C21.3699 16.0862 21.3699 16.0793 21.3699 16.0723C21.3699 16.0654 21.3699 16.0584 21.3699 16.0514C21.3699 16.0444 21.3699 16.0374 21.3699 16.0304C21.3699 16.0235 21.3699 16.0165 21.3699 16.0095C21.3699 16.0025 21.3699 15.9955 21.3699 15.9884C21.3699 15.9814 21.3699 15.9744 21.3699 15.9674C21.3699 15.9604 21.3699 15.9534 21.3699 15.9463C21.3699 15.9393 21.3699 15.9322 21.3699 15.9252C21.3699 15.9182 21.3699 15.9111 21.3699 15.9041C21.3699 15.897 21.3699 15.89 21.3699 15.8829C21.3699 15.8758 21.3699 15.8688 21.3699 15.8617C21.3699 15.8546 21.3699 15.8475 21.3699 15.8405C21.3699 15.8334 21.3699 15.8263 21.3699 15.8192C21.3699 15.8121 21.3699 15.805 21.3699 15.7979C21.3699 15.7908 21.3699 15.7837 21.3699 15.7766C21.3699 15.7695 21.3699 15.7624 21.3699 15.7552C21.3699 15.7481 21.3699 15.741 21.3699 15.7339C21.3699 15.7267 21.3699 15.7196 21.3699 15.7125C21.3699 15.7053 21.3699 15.6982 21.3699 15.691C21.3699 15.6839 21.3699 15.6767 21.3699 15.6696C21.3699 15.6624 21.3699 15.6552 21.3699 15.6481C21.3699 15.6409 21.3699 15.6337 21.3699 15.6266C21.3699 15.6194 21.3699 15.6122 21.3699 15.605C21.3699 15.5978 21.3699 15.5906 21.3699 15.5835C21.3699 15.5763 21.3699 15.5691 21.3699 15.5619C21.3699 15.5547 21.3699 15.5475 21.3699 15.5402C21.3699 15.533 21.3699 15.5258 21.3699 15.5186C21.3699 15.5114 21.3699 15.5042 21.3699 15.4969C21.3699 15.4897 21.3699 15.4825 21.3699 15.4752C21.3699 15.468 21.3699 15.4608 21.3699 15.4535C21.3699 15.4463 21.3699 15.439 21.3699 15.4318C21.3699 15.4245 21.3699 15.4173 21.3699 15.41C21.3699 15.4028 21.3699 15.3955 21.3699 15.3882C21.3699 15.381 21.3699 15.3737 21.3699 15.3664C21.3699 15.3592 21.3699 15.3519 21.3699 15.3446C21.3699 15.3373 21.3699 15.33 21.3699 15.3227C21.3699 15.3155 21.3699 15.3082 21.3699 15.3009C21.3699 15.2936 21.3699 15.2863 21.3699 15.279C21.3699 15.2717 21.3699 15.2644 21.3699 15.2571C21.3699 15.2497 21.3699 15.2424 21.3699 15.2351C21.3699 15.2278 21.3699 15.2205 21.3699 15.2132C21.3699 15.2058 21.3699 15.1985 21.3699 15.1912C21.3699 15.1838 21.3699 15.1765 21.3699 15.1692C21.3699 15.1618 21.3699 15.1545 21.3699 15.1472C21.3699 15.1398 21.3699 15.1325 21.3699 15.1251C21.3699 15.1178 21.3699 15.1104 21.3699 15.1031C21.3699 15.0957 21.3699 15.0883 21.3699 15.081C21.3699 15.0736 21.3699 15.0663 21.3699 15.0589C21.3699 15.0515 21.3699 15.0441 21.3699 15.0368C21.3699 15.0294 21.3699 15.022 21.3699 15.0146C21.3699 15.0073 21.3699 14.9999 21.3699 14.9925C21.3699 14.9851 21.3699 14.9777 21.3699 14.9703C21.3699 14.9629 21.3699 14.9555 21.3699 14.9481C21.3699 14.9407 21.3699 14.9333 21.3699 14.9259C21.3699 14.9185 21.3699 14.9111 21.3699 14.9037C21.3699 14.8963 21.3699 14.8889 21.3699 14.8815C21.3699 14.8741 21.3699 14.8667 21.3699 14.8593C21.3699 14.8518 21.3699 14.8444 21.3699 14.837C21.3699 14.8296 21.3699 14.8221 21.3699 14.8147C21.3699 14.8073 21.3699 14.7999 21.3699 14.7924C21.3699 14.785 21.3699 14.7776 21.3699 14.7701C21.3699 14.7627 21.3699 14.7552 21.3699 14.7478C21.3699 14.7404 21.3699 14.7329 21.3699 14.7255C21.3699 14.718 21.3699 14.7106 21.3699 14.7031C21.3699 14.6957 21.3699 14.6882 21.3699 14.6808C21.3699 14.6733 21.3699 14.6658 21.3699 14.6584C21.3699 14.6509 21.3699 14.6435 21.3699 14.636C21.3699 14.6285 21.3699 14.6211 21.3699 14.6136C21.3699 14.6061 21.3699 14.5987 21.3699 14.5912C21.3699 14.5837 21.3699 14.5763 21.3699 14.5688C21.3699 14.5613 21.3699 14.5538 21.3699 14.5464C21.3699 14.5389 21.3699 14.5314 21.3699 14.5239C21.3699 14.5164 21.3699 14.5089 21.3699 14.5015C21.3699 14.494 21.3699 14.4865 21.3699 14.479C21.3699 14.4715 21.3699 14.464 21.3699 14.4565C21.3699 14.449 21.3699 14.4415 21.3699 14.434C21.3699 14.4265 21.3699 14.4191 21.3699 14.4116C21.3699 14.4041 21.3699 14.3966 21.3699 14.3891C21.3699 14.3816 21.3699 14.3741 21.3699 14.3665C21.3699 14.359 21.3699 14.3515 21.3699 14.344C21.3699 14.3365 21.3699 14.329 21.3699 14.3215C21.3699 14.314 21.3699 14.3065 21.3699 14.299C21.3699 14.2915 21.3699 14.284 21.3699 14.2764C21.3699 14.2689 21.3699 14.2614 21.3699 14.2539C21.3699 14.2464 21.3699 14.2389 21.3699 14.2313C21.3699 14.2238 21.3699 14.2163 21.3699 14.2088C21.3699 14.2013 21.3699 14.1937 21.3699 14.1862C21.3699 14.1787 21.3699 14.1712 21.3699 14.1637C21.3699 14.1561 21.3699 14.1486 21.3699 14.1411C21.3699 14.1336 21.3699 14.126 21.3699 14.1185C21.3699 14.111 21.3699 14.1034 21.3699 14.0959C21.3699 14.0884 21.3699 14.0809 21.3699 14.0733C21.3699 14.0658 21.3699 14.0583 21.3699 14.0507C21.3699 14.0432 21.3699 14.0357 21.3699 14.0281C21.3699 14.0206 21.3699 14.0131 21.3699 14.0055C21.3699 13.998 21.3699 13.9905 21.3699 13.9829C21.3699 13.9754 21.3699 13.9679 21.3699 13.9603C21.3699 13.9528 21.3699 13.9453 21.3699 13.9377C21.3699 13.9302 21.3699 13.9226 21.3699 13.9151C21.3699 13.9076 21.3699 13.9 21.3699 13.8925C21.3699 13.885 21.3699 13.8774 21.3699 13.8699C21.3699 13.8623 21.3699 13.8548 21.3699 13.8473C21.3699 13.8397 21.3699 13.8322 21.3699 13.8247C21.3699 13.8171 21.3699 13.8096 21.3699 13.802C21.3699 13.7945 21.3699 13.787 21.3699 13.7794C21.3699 13.7719 21.3699 13.7643 21.3699 13.7568C21.3699 13.7493 21.3699 13.7417 21.3699 13.7342C21.3699 13.7266 21.3699 13.7191 21.3699 13.7116C21.3699 13.704 21.3699 13.6965 21.3699 13.689C21.3699 13.6814 21.3699 13.6739 21.3699 13.6663C21.3699 13.6588 21.3699 13.6513 21.3699 13.6437C21.3699 13.6362 21.3699 13.6287 21.3699 13.6211C21.3699 13.6136 21.3699 13.6061 21.3699 13.5985C21.3699 13.591 21.3699 13.5834 21.3699 13.5759C21.3699 13.5684 21.3699 13.5608 21.3699 13.5533C21.3699 13.5458 21.3699 13.5382 21.3699 13.5307C21.3699 13.5232 21.3699 13.5157 21.3699 13.5081C21.3699 13.5006 21.3699 13.4931 21.3699 13.4855C21.3699 13.478 21.3699 13.4705 21.3699 13.4629C21.3699 13.4554 21.3699 13.4479 21.3699 13.4404C21.3699 13.4328 21.3699 13.4253 21.3699 13.4178C21.3699 13.4103 21.3699 13.4027 21.3699 13.3952C21.3699 13.3877 21.3699 13.3802 21.3699 13.3726C21.3699 13.3651 21.3699 13.3576 21.3699 13.3501C21.3699 13.3426 21.3699 13.3351 21.3699 13.3275C21.3699 13.32 21.3699 13.3125 21.3699 13.305C21.3699 13.2975 21.3699 13.29 21.3699 13.2824C21.3699 13.2749 21.3699 13.2674 21.3699 13.2599C21.3699 13.2524 21.3699 13.2449 21.3699 13.2374C21.3699 13.2299 21.3699 13.2224 21.3699 13.2149C21.3699 13.2074 21.3699 13.1999 21.3699 13.1924C21.3699 13.1849 21.3699 13.1774 21.3699 13.1699C21.3699 13.1624 21.3699 13.1549 21.3699 13.1474C21.3699 13.1399 21.3699 13.1324 21.3699 13.1249C21.3699 13.1174 21.3699 13.1099 21.3699 13.1024C21.3699 13.0949 21.3699 13.0874 21.3699 13.0799C21.3699 13.0725 21.3699 13.065 21.3699 13.0575C21.3699 13.05 21.3699 13.0425 21.3699 13.035C21.3699 13.0276 21.3699 13.0201 21.3699 13.0126C21.3699 13.0051 21.3699 12.9977 21.3699 12.9902C21.3699 12.9827 21.3699 12.9752 21.3699 12.9678C21.3699 12.9603 21.3699 12.9528 21.3699 12.9454C21.3699 12.9379 21.3699 12.9304 21.3699 12.923C21.3699 12.9155 21.3699 12.9081 21.3699 12.9006C21.3699 12.8931 21.3699 12.8857 21.3699 12.8782C21.3699 12.8708 21.3699 12.8633 21.3699 12.8559C21.3699 12.8484 21.3699 12.841 21.3699 12.8336C21.3699 12.8261 21.3699 12.8187 21.3699 12.8112C21.3699 12.8038 21.3699 12.7964 21.3699 12.7889C21.3699 12.7815 21.3699 12.7741 21.3699 12.7666C21.3699 12.7592 21.3699 12.7518 21.3699 12.7443C21.3699 12.7369 21.3699 12.7295 21.3699 12.7221C21.3699 12.7147 21.3699 12.7072 21.3699 12.6998C21.3699 12.6924 21.3699 12.685 21.3699 12.6776C21.3699 12.6702 21.3699 12.6628 21.3699 12.6554C21.3699 12.648 21.3699 12.6406 21.3699 12.6332C21.3699 12.6258 21.3699 12.6184 21.3699 12.611C21.3699 12.6036 21.3699 12.5962 21.3699 12.5888C21.3699 12.5814 21.3699 12.574 21.3699 12.5666C21.3699 12.5593 21.3699 12.5519 21.3699 12.5445C21.3699 12.5371 21.3699 12.5298 21.3699 12.5224C21.3699 12.515 21.3699 12.5077 21.3699 12.5003C21.3699 12.4929 21.3699 12.4856 21.3699 12.4782C21.3699 12.4708 21.3699 12.4635 21.3699 12.4561C21.3699 12.4488 21.3699 12.4414 21.3699 12.4341C21.3699 12.4267 21.3699 12.4194 21.3699 12.4121C21.3699 12.4047 21.3699 12.3974 21.3699 12.3901C21.3699 12.3827 21.3699 12.3754 21.3699 12.3681C21.3699 12.3607 21.3699 12.3534 21.3699 12.3461C21.3699 12.3388 21.3699 12.3315 21.3699 12.3242C21.3699 12.3168 21.3699 12.3095 21.3699 12.3022C21.3699 12.2949 21.3699 12.2876 21.3699 12.2803C21.3699 12.273 21.3699 12.2657 21.3699 12.2584C21.3699 12.2512 21.3699 12.2439 21.3699 12.2366C21.3699 12.2293 21.3699 12.222 21.3699 12.2147C21.3699 12.2075 21.3699 12.2002 21.3699 12.1929C21.3699 12.1857 21.3699 12.1784 21.3699 12.1711C21.3699 12.1639 21.3699 12.1566 21.3699 12.1494C21.3699 12.1421 21.3699 12.1349 21.3699 12.1276C21.3699 12.1204 21.3699 12.1131 21.3699 12.1059C21.3699 12.0986 21.3699 12.0914 21.3699 12.0842C21.3699 12.077 21.3699 12.0697 21.3699 12.0625C21.3699 12.0553 21.3699 12.0481 21.3699 12.0409C21.3699 12.0336 21.3699 12.0264 21.3699 12.0192C21.3699 12.012 21.3699 12.0048 21.3699 11.9976C21.3699 11.9904 21.3699 11.9832 21.3699 11.9761C21.3699 11.9689 21.3699 11.9617 21.3699 11.9545C21.3699 11.9473 21.3699 11.9402 21.3699 11.933C21.3699 11.9258 21.3699 11.9186 21.3699 11.9115C21.3699 11.9043 21.3699 11.8972 21.3699 11.89C21.3699 11.8829 21.3699 11.8757 21.3699 11.8686C21.3699 11.8614 21.3699 11.8543 21.3699 11.8472C21.3699 11.84 21.3699 11.8329 21.3699 11.8258C21.3699 11.8186 21.3699 11.8115 21.3699 11.8044C21.3699 11.7973 21.3699 11.7902 21.3699 11.7831C21.3699 11.776 21.3699 11.7689 21.3699 11.7618C21.3699 11.7547 21.3699 11.7476 21.3699 11.7405C21.3699 11.7334 21.3699 11.7263 21.3699 11.7193C21.3699 11.7122 21.3699 11.7051 21.3699 11.6981C21.3699 11.691 21.3699 11.6839 21.3699 11.6769C21.3699 11.6698 21.3699 11.6628 21.3699 11.6557C21.3699 11.6487 21.3699 11.6416 21.3699 11.6346C21.3699 11.6276 21.3699 11.6205 21.3699 11.6135C21.3699 11.6065 21.3699 11.5995 21.3699 11.5924C21.3699 11.5854 21.3699 11.5784 21.3699 11.5714C21.3699 11.5644 21.3699 11.5574 21.3699 11.5504C21.3699 11.5434 21.3699 11.5364 21.3699 11.5295C21.3699 11.5225 21.3699 11.5155 21.3699 11.5085C21.3699 11.5016 21.3699 11.4946 21.3699 11.4876C21.3699 11.4807 21.3699 11.4737 21.3699 11.4668C21.3699 11.4598 21.3699 11.4529 21.3699 11.4459C21.3699 11.439 21.3699 11.4321 21.3699 11.4251C21.3699 11.4182 21.3699 11.4113 21.3699 11.4044C21.3699 11.3975 21.3699 11.3905 21.3699 11.3836C21.3699 11.3767 21.3699 11.3698 21.3699 11.3629C21.3699 11.3561 21.3699 11.3492 21.3699 11.3423C21.3699 11.3354 21.3699 11.3285 21.3699 11.3217C21.3699 11.3148 21.3699 11.3079 21.3699 11.3011C21.3699 11.2942 21.3699 11.2874 21.3699 11.2805C21.3699 11.2737 21.3699 11.2668 21.3699 11.26C21.3699 11.2532 21.3699 11.2463 21.3699 11.2395C21.3699 11.2327 21.3699 11.2259 21.3699 11.2191C21.3699 11.2123 21.3699 11.2055 21.3699 11.1987C21.3699 11.1919 21.3699 11.1851 21.3699 11.1783C21.3699 11.1715 21.3699 11.1648 21.3699 11.158C21.3699 11.1512 21.3699 11.1445 21.3699 11.1377C21.3699 11.1309 21.3699 11.1242 21.3699 11.1174C21.3699 11.1107 21.3699 11.104 21.3699 11.0972C21.3699 11.0905 21.3699 11.0838 21.3699 11.0771C21.3699 11.0703 21.3699 11.0636 21.3699 11.0569C21.3699 11.0502 21.3699 11.0435 21.3699 11.0368C21.3699 11.0301 21.3699 11.0235 21.3699 11.0168C21.3699 11.0101 21.3699 11.0034 21.3699 10.9968C21.3699 10.9901 21.3699 10.9835 21.3699 10.9768C21.3699 10.9702 21.3699 10.9635 21.3699 10.9569C21.3699 10.9502 21.3699 10.9436 21.3699 10.937C21.3699 10.9304 21.3699 10.9237 21.3699 10.9171C21.3699 10.9105 21.3699 10.9039 21.3699 10.8973C21.3699 10.8907 21.3699 10.8842 21.3699 10.8776C21.3699 10.871 21.3699 10.8644 21.3699 10.8579H20.3699C20.3699 10.8644 20.3699 10.871 20.3699 10.8776C20.3699 10.8842 20.3699 10.8907 20.3699 10.8973C20.3699 10.9039 20.3699 10.9105 20.3699 10.9171C20.3699 10.9237 20.3699 10.9304 20.3699 10.937C20.3699 10.9436 20.3699 10.9502 20.3699 10.9569C20.3699 10.9635 20.3699 10.9702 20.3699 10.9768C20.3699 10.9835 20.3699 10.9901 20.3699 10.9968C20.3699 11.0034 20.3699 11.0101 20.3699 11.0168C20.3699 11.0235 20.3699 11.0301 20.3699 11.0368C20.3699 11.0435 20.3699 11.0502 20.3699 11.0569C20.3699 11.0636 20.3699 11.0703 20.3699 11.0771C20.3699 11.0838 20.3699 11.0905 20.3699 11.0972C20.3699 11.104 20.3699 11.1107 20.3699 11.1174C20.3699 11.1242 20.3699 11.1309 20.3699 11.1377C20.3699 11.1445 20.3699 11.1512 20.3699 11.158C20.3699 11.1648 20.3699 11.1715 20.3699 11.1783C20.3699 11.1851 20.3699 11.1919 20.3699 11.1987C20.3699 11.2055 20.3699 11.2123 20.3699 11.2191C20.3699 11.2259 20.3699 11.2327 20.3699 11.2395C20.3699 11.2463 20.3699 11.2532 20.3699 11.26C20.3699 11.2668 20.3699 11.2737 20.3699 11.2805C20.3699 11.2874 20.3699 11.2942 20.3699 11.3011C20.3699 11.3079 20.3699 11.3148 20.3699 11.3217C20.3699 11.3285 20.3699 11.3354 20.3699 11.3423C20.3699 11.3492 20.3699 11.3561 20.3699 11.3629C20.3699 11.3698 20.3699 11.3767 20.3699 11.3836C20.3699 11.3905 20.3699 11.3975 20.3699 11.4044C20.3699 11.4113 20.3699 11.4182 20.3699 11.4251C20.3699 11.4321 20.3699 11.439 20.3699 11.4459C20.3699 11.4529 20.3699 11.4598 20.3699 11.4668C20.3699 11.4737 20.3699 11.4807 20.3699 11.4876C20.3699 11.4946 20.3699 11.5016 20.3699 11.5085C20.3699 11.5155 20.3699 11.5225 20.3699 11.5295C20.3699 11.5364 20.3699 11.5434 20.3699 11.5504C20.3699 11.5574 20.3699 11.5644 20.3699 11.5714C20.3699 11.5784 20.3699 11.5854 20.3699 11.5924C20.3699 11.5995 20.3699 11.6065 20.3699 11.6135C20.3699 11.6205 20.3699 11.6276 20.3699 11.6346C20.3699 11.6416 20.3699 11.6487 20.3699 11.6557C20.3699 11.6628 20.3699 11.6698 20.3699 11.6769C20.3699 11.6839 20.3699 11.691 20.3699 11.6981C20.3699 11.7051 20.3699 11.7122 20.3699 11.7193C20.3699 11.7263 20.3699 11.7334 20.3699 11.7405C20.3699 11.7476 20.3699 11.7547 20.3699 11.7618C20.3699 11.7689 20.3699 11.776 20.3699 11.7831C20.3699 11.7902 20.3699 11.7973 20.3699 11.8044C20.3699 11.8115 20.3699 11.8186 20.3699 11.8258C20.3699 11.8329 20.3699 11.84 20.3699 11.8472C20.3699 11.8543 20.3699 11.8614 20.3699 11.8686C20.3699 11.8757 20.3699 11.8829 20.3699 11.89C20.3699 11.8972 20.3699 11.9043 20.3699 11.9115C20.3699 11.9186 20.3699 11.9258 20.3699 11.933C20.3699 11.9402 20.3699 11.9473 20.3699 11.9545C20.3699 11.9617 20.3699 11.9689 20.3699 11.9761C20.3699 11.9832 20.3699 11.9904 20.3699 11.9976C20.3699 12.0048 20.3699 12.012 20.3699 12.0192C20.3699 12.0264 20.3699 12.0336 20.3699 12.0409C20.3699 12.0481 20.3699 12.0553 20.3699 12.0625C20.3699 12.0697 20.3699 12.077 20.3699 12.0842C20.3699 12.0914 20.3699 12.0986 20.3699 12.1059C20.3699 12.1131 20.3699 12.1204 20.3699 12.1276C20.3699 12.1349 20.3699 12.1421 20.3699 12.1494C20.3699 12.1566 20.3699 12.1639 20.3699 12.1711C20.3699 12.1784 20.3699 12.1857 20.3699 12.1929C20.3699 12.2002 20.3699 12.2075 20.3699 12.2147C20.3699 12.222 20.3699 12.2293 20.3699 12.2366C20.3699 12.2439 20.3699 12.2512 20.3699 12.2584C20.3699 12.2657 20.3699 12.273 20.3699 12.2803C20.3699 12.2876 20.3699 12.2949 20.3699 12.3022C20.3699 12.3095 20.3699 12.3168 20.3699 12.3242C20.3699 12.3315 20.3699 12.3388 20.3699 12.3461C20.3699 12.3534 20.3699 12.3607 20.3699 12.3681C20.3699 12.3754 20.3699 12.3827 20.3699 12.3901C20.3699 12.3974 20.3699 12.4047 20.3699 12.4121C20.3699 12.4194 20.3699 12.4267 20.3699 12.4341C20.3699 12.4414 20.3699 12.4488 20.3699 12.4561C20.3699 12.4635 20.3699 12.4708 20.3699 12.4782C20.3699 12.4856 20.3699 12.4929 20.3699 12.5003C20.3699 12.5077 20.3699 12.515 20.3699 12.5224C20.3699 12.5298 20.3699 12.5371 20.3699 12.5445C20.3699 12.5519 20.3699 12.5593 20.3699 12.5666C20.3699 12.574 20.3699 12.5814 20.3699 12.5888C20.3699 12.5962 20.3699 12.6036 20.3699 12.611C20.3699 12.6184 20.3699 12.6258 20.3699 12.6332C20.3699 12.6406 20.3699 12.648 20.3699 12.6554C20.3699 12.6628 20.3699 12.6702 20.3699 12.6776C20.3699 12.685 20.3699 12.6924 20.3699 12.6998C20.3699 12.7072 20.3699 12.7147 20.3699 12.7221C20.3699 12.7295 20.3699 12.7369 20.3699 12.7443C20.3699 12.7518 20.3699 12.7592 20.3699 12.7666C20.3699 12.7741 20.3699 12.7815 20.3699 12.7889C20.3699 12.7964 20.3699 12.8038 20.3699 12.8112C20.3699 12.8187 20.3699 12.8261 20.3699 12.8336C20.3699 12.841 20.3699 12.8484 20.3699 12.8559C20.3699 12.8633 20.3699 12.8708 20.3699 12.8782C20.3699 12.8857 20.3699 12.8931 20.3699 12.9006C20.3699 12.9081 20.3699 12.9155 20.3699 12.923C20.3699 12.9304 20.3699 12.9379 20.3699 12.9454C20.3699 12.9528 20.3699 12.9603 20.3699 12.9678C20.3699 12.9752 20.3699 12.9827 20.3699 12.9902C20.3699 12.9977 20.3699 13.0051 20.3699 13.0126C20.3699 13.0201 20.3699 13.0276 20.3699 13.035C20.3699 13.0425 20.3699 13.05 20.3699 13.0575C20.3699 13.065 20.3699 13.0725 20.3699 13.0799C20.3699 13.0874 20.3699 13.0949 20.3699 13.1024C20.3699 13.1099 20.3699 13.1174 20.3699 13.1249C20.3699 13.1324 20.3699 13.1399 20.3699 13.1474C20.3699 13.1549 20.3699 13.1624 20.3699 13.1699C20.3699 13.1774 20.3699 13.1849 20.3699 13.1924C20.3699 13.1999 20.3699 13.2074 20.3699 13.2149C20.3699 13.2224 20.3699 13.2299 20.3699 13.2374C20.3699 13.2449 20.3699 13.2524 20.3699 13.2599C20.3699 13.2674 20.3699 13.2749 20.3699 13.2824C20.3699 13.29 20.3699 13.2975 20.3699 13.305C20.3699 13.3125 20.3699 13.32 20.3699 13.3275C20.3699 13.3351 20.3699 13.3426 20.3699 13.3501C20.3699 13.3576 20.3699 13.3651 20.3699 13.3726C20.3699 13.3802 20.3699 13.3877 20.3699 13.3952C20.3699 13.4027 20.3699 13.4103 20.3699 13.4178C20.3699 13.4253 20.3699 13.4328 20.3699 13.4404C20.3699 13.4479 20.3699 13.4554 20.3699 13.4629C20.3699 13.4705 20.3699 13.478 20.3699 13.4855C20.3699 13.4931 20.3699 13.5006 20.3699 13.5081C20.3699 13.5157 20.3699 13.5232 20.3699 13.5307C20.3699 13.5382 20.3699 13.5458 20.3699 13.5533C20.3699 13.5608 20.3699 13.5684 20.3699 13.5759C20.3699 13.5834 20.3699 13.591 20.3699 13.5985C20.3699 13.6061 20.3699 13.6136 20.3699 13.6211C20.3699 13.6287 20.3699 13.6362 20.3699 13.6437C20.3699 13.6513 20.3699 13.6588 20.3699 13.6663C20.3699 13.6739 20.3699 13.6814 20.3699 13.689C20.3699 13.6965 20.3699 13.704 20.3699 13.7116C20.3699 13.7191 20.3699 13.7266 20.3699 13.7342C20.3699 13.7417 20.3699 13.7493 20.3699 13.7568C20.3699 13.7643 20.3699 13.7719 20.3699 13.7794C20.3699 13.787 20.3699 13.7945 20.3699 13.802C20.3699 13.8096 20.3699 13.8171 20.3699 13.8247C20.3699 13.8322 20.3699 13.8397 20.3699 13.8473C20.3699 13.8548 20.3699 13.8623 20.3699 13.8699C20.3699 13.8774 20.3699 13.885 20.3699 13.8925C20.3699 13.9 20.3699 13.9076 20.3699 13.9151C20.3699 13.9226 20.3699 13.9302 20.3699 13.9377C20.3699 13.9453 20.3699 13.9528 20.3699 13.9603C20.3699 13.9679 20.3699 13.9754 20.3699 13.9829C20.3699 13.9905 20.3699 13.998 20.3699 14.0055C20.3699 14.0131 20.3699 14.0206 20.3699 14.0281C20.3699 14.0357 20.3699 14.0432 20.3699 14.0507C20.3699 14.0583 20.3699 14.0658 20.3699 14.0733C20.3699 14.0809 20.3699 14.0884 20.3699 14.0959C20.3699 14.1034 20.3699 14.111 20.3699 14.1185C20.3699 14.126 20.3699 14.1336 20.3699 14.1411C20.3699 14.1486 20.3699 14.1561 20.3699 14.1637C20.3699 14.1712 20.3699 14.1787 20.3699 14.1862C20.3699 14.1937 20.3699 14.2013 20.3699 14.2088C20.3699 14.2163 20.3699 14.2238 20.3699 14.2313C20.3699 14.2389 20.3699 14.2464 20.3699 14.2539C20.3699 14.2614 20.3699 14.2689 20.3699 14.2764C20.3699 14.284 20.3699 14.2915 20.3699 14.299C20.3699 14.3065 20.3699 14.314 20.3699 14.3215C20.3699 14.329 20.3699 14.3365 20.3699 14.344C20.3699 14.3515 20.3699 14.359 20.3699 14.3665C20.3699 14.3741 20.3699 14.3816 20.3699 14.3891C20.3699 14.3966 20.3699 14.4041 20.3699 14.4116C20.3699 14.4191 20.3699 14.4265 20.3699 14.434C20.3699 14.4415 20.3699 14.449 20.3699 14.4565C20.3699 14.464 20.3699 14.4715 20.3699 14.479C20.3699 14.4865 20.3699 14.494 20.3699 14.5015C20.3699 14.5089 20.3699 14.5164 20.3699 14.5239C20.3699 14.5314 20.3699 14.5389 20.3699 14.5464C20.3699 14.5538 20.3699 14.5613 20.3699 14.5688C20.3699 14.5763 20.3699 14.5837 20.3699 14.5912C20.3699 14.5987 20.3699 14.6061 20.3699 14.6136C20.3699 14.6211 20.3699 14.6285 20.3699 14.636C20.3699 14.6435 20.3699 14.6509 20.3699 14.6584C20.3699 14.6658 20.3699 14.6733 20.3699 14.6808C20.3699 14.6882 20.3699 14.6957 20.3699 14.7031C20.3699 14.7106 20.3699 14.718 20.3699 14.7255C20.3699 14.7329 20.3699 14.7404 20.3699 14.7478C20.3699 14.7552 20.3699 14.7627 20.3699 14.7701C20.3699 14.7776 20.3699 14.785 20.3699 14.7924C20.3699 14.7999 20.3699 14.8073 20.3699 14.8147C20.3699 14.8221 20.3699 14.8296 20.3699 14.837C20.3699 14.8444 20.3699 14.8518 20.3699 14.8593C20.3699 14.8667 20.3699 14.8741 20.3699 14.8815C20.3699 14.8889 20.3699 14.8963 20.3699 14.9037C20.3699 14.9111 20.3699 14.9185 20.3699 14.9259C20.3699 14.9333 20.3699 14.9407 20.3699 14.9481C20.3699 14.9555 20.3699 14.9629 20.3699 14.9703C20.3699 14.9777 20.3699 14.9851 20.3699 14.9925C20.3699 14.9999 20.3699 15.0073 20.3699 15.0146C20.3699 15.022 20.3699 15.0294 20.3699 15.0368C20.3699 15.0441 20.3699 15.0515 20.3699 15.0589C20.3699 15.0663 20.3699 15.0736 20.3699 15.081C20.3699 15.0883 20.3699 15.0957 20.3699 15.1031C20.3699 15.1104 20.3699 15.1178 20.3699 15.1251C20.3699 15.1325 20.3699 15.1398 20.3699 15.1472C20.3699 15.1545 20.3699 15.1618 20.3699 15.1692C20.3699 15.1765 20.3699 15.1838 20.3699 15.1912C20.3699 15.1985 20.3699 15.2058 20.3699 15.2132C20.3699 15.2205 20.3699 15.2278 20.3699 15.2351C20.3699 15.2424 20.3699 15.2497 20.3699 15.2571C20.3699 15.2644 20.3699 15.2717 20.3699 15.279C20.3699 15.2863 20.3699 15.2936 20.3699 15.3009C20.3699 15.3082 20.3699 15.3155 20.3699 15.3227C20.3699 15.33 20.3699 15.3373 20.3699 15.3446C20.3699 15.3519 20.3699 15.3592 20.3699 15.3664C20.3699 15.3737 20.3699 15.381 20.3699 15.3882C20.3699 15.3955 20.3699 15.4028 20.3699 15.41C20.3699 15.4173 20.3699 15.4245 20.3699 15.4318C20.3699 15.439 20.3699 15.4463 20.3699 15.4535C20.3699 15.4608 20.3699 15.468 20.3699 15.4752C20.3699 15.4825 20.3699 15.4897 20.3699 15.4969C20.3699 15.5042 20.3699 15.5114 20.3699 15.5186C20.3699 15.5258 20.3699 15.533 20.3699 15.5402C20.3699 15.5475 20.3699 15.5547 20.3699 15.5619C20.3699 15.5691 20.3699 15.5763 20.3699 15.5835C20.3699 15.5906 20.3699 15.5978 20.3699 15.605C20.3699 15.6122 20.3699 15.6194 20.3699 15.6266C20.3699 15.6337 20.3699 15.6409 20.3699 15.6481C20.3699 15.6552 20.3699 15.6624 20.3699 15.6696C20.3699 15.6767 20.3699 15.6839 20.3699 15.691C20.3699 15.6982 20.3699 15.7053 20.3699 15.7125C20.3699 15.7196 20.3699 15.7267 20.3699 15.7339C20.3699 15.741 20.3699 15.7481 20.3699 15.7552C20.3699 15.7624 20.3699 15.7695 20.3699 15.7766C20.3699 15.7837 20.3699 15.7908 20.3699 15.7979C20.3699 15.805 20.3699 15.8121 20.3699 15.8192C20.3699 15.8263 20.3699 15.8334 20.3699 15.8405C20.3699 15.8475 20.3699 15.8546 20.3699 15.8617C20.3699 15.8688 20.3699 15.8758 20.3699 15.8829C20.3699 15.89 20.3699 15.897 20.3699 15.9041C20.3699 15.9111 20.3699 15.9182 20.3699 15.9252C20.3699 15.9322 20.3699 15.9393 20.3699 15.9463C20.3699 15.9534 20.3699 15.9604 20.3699 15.9674C20.3699 15.9744 20.3699 15.9814 20.3699 15.9884C20.3699 15.9955 20.3699 16.0025 20.3699 16.0095C20.3699 16.0165 20.3699 16.0235 20.3699 16.0304C20.3699 16.0374 20.3699 16.0444 20.3699 16.0514C20.3699 16.0584 20.3699 16.0654 20.3699 16.0723C20.3699 16.0793 20.3699 16.0862 20.3699 16.0932C20.3699 16.1002 20.3699 16.1071 20.3699 16.1141C20.3699 16.121 20.3699 16.1279 20.3699 16.1349C20.3699 16.1418 20.3699 16.1487 20.3699 16.1557C20.3699 16.1626 20.3699 16.1695 20.3699 16.1764C20.3699 16.1833 20.3699 16.1902 20.3699 16.1971C20.3699 16.204 20.3699 16.2109 20.3699 16.2178C20.3699 16.2247 20.3699 16.2316 20.3699 16.2385C20.3699 16.2453 20.3699 16.2522 20.3699 16.2591C20.3699 16.2659 20.3699 16.2728 20.3699 16.2796C20.3699 16.2865 20.3699 16.2933 20.3699 16.3002C20.3699 16.307 20.3699 16.3139 20.3699 16.3207C20.3699 16.3275 20.3699 16.3343 20.3699 16.3412C20.3699 16.348 20.3699 16.3548 20.3699 16.3616C20.3699 16.3684 20.3699 16.3752 20.3699 16.382C20.3699 16.3888 20.3699 16.3955 20.3699 16.4023C20.3699 16.4091 20.3699 16.4159 20.3699 16.4226C20.3699 16.4294 20.3699 16.4362 20.3699 16.4429C20.3699 16.4497 20.3699 16.4564 20.3699 16.4631C20.3699 16.4699 20.3699 16.4766 20.3699 16.4833C20.3699 16.4901 20.3699 16.4968 20.3699 16.5035C20.3699 16.5102 20.3699 16.5169 20.3699 16.5236C20.3699 16.5303 20.3699 16.537 20.3699 16.5437C20.3699 16.5504 20.3699 16.5571 20.3699 16.5637C20.3699 16.5704 20.3699 16.5771 20.3699 16.5837C20.3699 16.5904 20.3699 16.597 20.3699 16.6037C20.3699 16.6103 20.3699 16.617 20.3699 16.6236C20.3699 16.6302 20.3699 16.6369 20.3699 16.6435C20.3699 16.6501 20.3699 16.6567 20.3699 16.6633C20.3699 16.6699 20.3699 16.6765 20.3699 16.6831C20.3699 16.6897 20.3699 16.6963 20.3699 16.7029C20.3699 16.7094 20.3699 16.716 20.3699 16.7226C20.3699 16.7291 20.3699 16.7357 20.3699 16.7422C20.3699 16.7488 20.3699 16.7553 20.3699 16.7618C20.3699 16.7684 20.3699 16.7749 20.3699 16.7814C20.3699 16.7879 20.3699 16.7944 20.3699 16.8009C20.3699 16.8074 20.3699 16.8139 20.3699 16.8204C20.3699 16.8269 20.3699 16.8334 20.3699 16.8399C20.3699 16.8463 20.3699 16.8528 20.3699 16.8593C20.3699 16.8657 20.3699 16.8722 20.3699 16.8786C20.3699 16.885 20.3699 16.8915 20.3699 16.8979C20.3699 16.9043 20.3699 16.9107 20.3699 16.9172C20.3699 16.9236 20.3699 16.93 20.3699 16.9364C20.3699 16.9428 20.3699 16.9492 20.3699 16.9555C20.3699 16.9619 20.3699 16.9683 20.3699 16.9747C20.3699 16.981 20.3699 16.9874 20.3699 16.9937C20.3699 17.0001 20.3699 17.0064 20.3699 17.0127C20.3699 17.0191 20.3699 17.0254 20.3699 17.0317C20.3699 17.038 20.3699 17.0443 20.3699 17.0506C20.3699 17.0569 20.3699 17.0632 20.3699 17.0695C20.3699 17.0758 20.3699 17.0821 20.3699 17.0883C20.3699 17.0946 20.3699 17.1009 20.3699 17.1071C20.3699 17.1134 20.3699 17.1196 20.3699 17.1259C20.3699 17.1321 20.3699 17.1383 20.3699 17.1445C20.3699 17.1507 20.3699 17.157 20.3699 17.1632C20.3699 17.1694 20.3699 17.1756 20.3699 17.1817C20.3699 17.1879 20.3699 17.1941 20.3699 17.2003C20.3699 17.2064 20.3699 17.2126 20.3699 17.2187C20.3699 17.2249 20.3699 17.231 20.3699 17.2372C20.3699 17.2433 20.3699 17.2494 20.3699 17.2555C20.3699 17.2616 20.3699 17.2678 20.3699 17.2739C20.3699 17.28 20.3699 17.286 20.3699 17.2921C20.3699 17.2982 20.3699 17.3043 20.3699 17.3103C20.3699 17.3164 20.3699 17.3225 20.3699 17.3285C20.3699 17.3345 20.3699 17.3406 20.3699 17.3466C20.3699 17.3526 20.3699 17.3586 20.3699 17.3647C20.3699 17.3707 20.3699 17.3767 20.3699 17.3827C20.3699 17.3886 20.3699 17.3946 20.3699 17.4006C20.3699 17.4066 20.3699 17.4125 20.3699 17.4185C20.3699 17.4244 20.3699 17.4304 20.3699 17.4363C20.3699 17.4423 20.3699 17.4482 20.3699 17.4541C20.3699 17.46 20.3699 17.4659 20.3699 17.4718C20.3699 17.4777 20.3699 17.4836 20.3699 17.4895C20.3699 17.4954 20.3699 17.5013 20.3699 17.5071C20.3699 17.513 20.3699 17.5188 20.3699 17.5247C20.3699 17.5305 20.3699 17.5364 20.3699 17.5422C20.3699 17.548 20.3699 17.5538 20.3699 17.5596C20.3699 17.5654 20.3699 17.5712 20.3699 17.577C20.3699 17.5828 20.3699 17.5886 20.3699 17.5943C20.3699 17.6001 20.3699 17.6058 20.3699 17.6116C20.3699 17.6173 20.3699 17.6231 20.3699 17.6288C20.3699 17.6345 20.3699 17.6402 20.3699 17.646C20.3699 17.6517 20.3699 17.6574 20.3699 17.663C20.3699 17.6687 20.3699 17.6744 20.3699 17.6801C20.3699 17.6857 20.3699 17.6914 20.3699 17.697C20.3699 17.7027 20.3699 17.7083 20.3699 17.714C20.3699 17.7196 20.3699 17.7252 20.3699 17.7308C20.3699 17.7364 20.3699 17.742 20.3699 17.7476C20.3699 17.7532 20.3699 17.7588 20.3699 17.7643C20.3699 17.7699 20.3699 17.7755 20.3699 17.781C20.3699 17.7865 20.3699 17.7921 20.3699 17.7976C20.3699 17.8031 20.3699 17.8086 20.3699 17.8141C20.3699 17.8197 20.3699 17.8251 20.3699 17.8306C20.3699 17.8361 20.3699 17.8416 20.3699 17.8471C20.3699 17.8525 20.3699 17.858 20.3699 17.8634C20.3699 17.8688 20.3699 17.8743 20.3699 17.8797C20.3699 17.8851 20.3699 17.8905 20.3699 17.8959C20.3699 17.9013 20.3699 17.9067 20.3699 17.9121C20.3699 17.9175 20.3699 17.9228 20.3699 17.9282C20.3699 17.9336 20.3699 17.9389 20.3699 17.9442C20.3699 17.9496 20.3699 17.9549 20.3699 17.9602C20.3699 17.9655 20.3699 17.9708 20.3699 17.9761C20.3699 17.9814 20.3699 17.9867 20.3699 17.9919C20.3699 17.9972 20.3699 18.0025 20.3699 18.0077C20.3699 18.013 20.3699 18.0182 20.3699 18.0234C20.3699 18.0287 20.3699 18.0339 20.3699 18.0391C20.3699 18.0443 20.3699 18.0495 20.3699 18.0546C20.3699 18.0598 20.3699 18.065 20.3699 18.0702C20.3699 18.0753 20.3699 18.0805 20.3699 18.0856C20.3699 18.0907 20.3699 18.0959 20.3699 18.101C20.3699 18.1061 20.3699 18.1112 20.3699 18.1163C20.3699 18.1214 20.3699 18.1264 20.3699 18.1315C20.3699 18.1366 20.3699 18.1416 20.3699 18.1467C20.3699 18.1517 20.3699 18.1568 20.3699 18.1618C20.3699 18.1668 20.3699 18.1718 20.3699 18.1768C20.3699 18.1818 20.3699 18.1868 20.3699 18.1918C20.3699 18.1967 20.3699 18.2017 20.3699 18.2067C20.3699 18.2116 20.3699 18.2165 20.3699 18.2215C20.3699 18.2264 20.3699 18.2313 20.3699 18.2362C20.3699 18.2411 20.3699 18.246 20.3699 18.2509C20.3699 18.2558 20.3699 18.2606 20.3699 18.2655C20.3699 18.2704 20.3699 18.2752 20.3699 18.28C20.3699 18.2849 20.3699 18.2897 20.3699 18.2945C20.3699 18.2993 20.3699 18.3041 20.3699 18.3089C20.3699 18.3137 20.3699 18.3184 20.3699 18.3232C20.3699 18.328 20.3699 18.3327 20.3699 18.3375C20.3699 18.3422 20.3699 18.3469 20.3699 18.3516C20.3699 18.3563 20.3699 18.361 20.3699 18.3657C20.3699 18.3704 20.3699 18.3751 20.3699 18.3797C20.3699 18.3844 20.3699 18.3891 20.3699 18.3937C20.3699 18.3983 20.3699 18.403 20.3699 18.4076C20.3699 18.4122 20.3699 18.4168 20.3699 18.4214C20.3699 18.426 20.3699 18.4305 20.3699 18.4351C20.3699 18.4397 20.3699 18.4442 20.3699 18.4487C20.3699 18.4533 20.3699 18.4578 20.3699 18.4623C20.3699 18.4668 20.3699 18.4713 20.3699 18.4758C20.3699 18.4803 20.3699 18.4848 20.3699 18.4892C20.3699 18.4937 20.3699 18.4981 20.3699 18.5026C20.3699 18.507 20.3699 18.5114 20.3699 18.5158C20.3699 18.5203 20.3699 18.5247 20.3699 18.529C20.3699 18.5334 20.3699 18.5378 20.3699 18.5422C20.3699 18.5465 20.3699 18.5509 20.3699 18.5552C20.3699 18.5595 20.3699 18.5638 20.3699 18.5681C20.3699 18.5724 20.3699 18.5767 20.3699 18.581C20.3699 18.5853 20.3699 18.5896 20.3699 18.5938C20.3699 18.5981 20.3699 18.6023 20.3699 18.6065C20.3699 18.6108 20.3699 18.615 20.3699 18.6192C20.3699 18.6234 20.3699 18.6276 20.3699 18.6317C20.3699 18.6359 20.3699 18.6401 20.3699 18.6442C20.3699 18.6484 20.3699 18.6525 20.3699 18.6566C20.3699 18.6607 20.3699 18.6648 20.3699 18.6689C20.3699 18.673 20.3699 18.6771 20.3699 18.6812C20.3699 18.6852 20.3699 18.6893 20.3699 18.6933C20.3699 18.6974 20.3699 18.7014 20.3699 18.7054C20.3699 18.7094 20.3699 18.7134 20.3699 18.7174C20.3699 18.7214 20.3699 18.7253 20.3699 18.7293C20.3699 18.7333 20.3699 18.7372 20.3699 18.7411C20.3699 18.7451 20.3699 18.749 20.3699 18.7529C20.3699 18.7568 20.3699 18.7607 20.3699 18.7645C20.3699 18.7684 20.3699 18.7723 20.3699 18.7761C20.3699 18.78 20.3699 18.7838 20.3699 18.7876C20.3699 18.7914 20.3699 18.7952 20.3699 18.799C20.3699 18.8028 20.3699 18.8066 20.3699 18.8103C20.3699 18.8141 20.3699 18.8178 20.3699 18.8216C20.3699 18.8253 20.3699 18.829 20.3699 18.8327C20.3699 18.8364 20.3699 18.8401 20.3699 18.8438C20.3699 18.8475 20.3699 18.8511 20.3699 18.8548C20.3699 18.8584 20.3699 18.862 20.3699 18.8657C20.3699 18.8693 20.3699 18.8729 20.3699 18.8765C20.3699 18.8801 20.3699 18.8836 20.3699 18.8872C20.3699 18.8908 20.3699 18.8943 20.3699 18.8978C20.3699 18.9014 20.3699 18.9049 20.3699 18.9084C20.3699 18.9119 20.3699 18.9154 20.3699 18.9188C20.3699 18.9223 20.3699 18.9258 20.3699 18.9292C20.3699 18.9326 20.3699 18.9361 20.3699 18.9395C20.3699 18.9429 20.3699 18.9463 20.3699 18.9497C20.3699 18.9531 20.3699 18.9564 20.3699 18.9598C20.3699 18.9631 20.3699 18.9665 20.3699 18.9698C20.3699 18.9731 20.3699 18.9764 20.3699 18.9797C20.3699 18.983 20.3699 18.9863 20.3699 18.9896C20.3699 18.9928 20.3699 18.9961 20.3699 18.9993C20.3699 19.0025 20.3699 19.0057 20.3699 19.0089C20.3699 19.0122 20.3699 19.0153 20.3699 19.0185C20.3699 19.0217 20.3699 19.0248 20.3699 19.028C20.3699 19.0311 20.3699 19.0343 20.3699 19.0374C20.3699 19.0405 20.3699 19.0436 20.3699 19.0466C20.3699 19.0497 20.3699 19.0528 20.3699 19.0558C20.3699 19.0589 20.3699 19.0619 20.3699 19.0649C20.3699 19.068 20.3699 19.071 20.3699 19.074C20.3699 19.0769 20.3699 19.0799 20.3699 19.0829C20.3699 19.0858 20.3699 19.0888 20.3699 19.0917C20.3699 19.0946 20.3699 19.0975 20.3699 19.1004C20.3699 19.1033 20.3699 19.1062 20.3699 19.1091C20.3699 19.1119 20.3699 19.1148 20.3699 19.1176C20.3699 19.1204 20.3699 19.1232 20.3699 19.126C20.3699 19.1288 20.3699 19.1316 20.3699 19.1344C20.3699 19.1372 20.3699 19.1399 20.3699 19.1426C20.3699 19.1454 20.3699 19.1481 20.3699 19.1508C20.3699 19.1535 20.3699 19.1562 20.3699 19.1589C20.3699 19.1615 20.3699 19.1642 20.3699 19.1668C20.3699 19.1695 20.3699 19.1721 20.3699 19.1747C20.3699 19.1773 20.3699 19.1799 20.3699 19.1825C20.3699 19.185 20.3699 19.1876 20.3699 19.1901C20.3699 19.1927 20.3699 19.1952 20.3699 19.1977C20.3699 19.2002 20.3699 19.2027 20.3699 19.2052C20.3699 19.2077 20.3699 19.2101 20.3699 19.2126C20.3699 19.215 20.3699 19.2174 20.3699 19.2198C20.3699 19.2223 20.3699 19.2247 20.3699 19.227C20.3699 19.2294 20.3699 19.2318 20.3699 19.2341C20.3699 19.2365 20.3699 19.2388 20.3699 19.2411C20.3699 19.2434 20.3699 19.2457 20.3699 19.248C20.3699 19.2503 20.3699 19.2525 20.3699 19.2548C20.3699 19.257 20.3699 19.2592 20.3699 19.2614C20.3699 19.2637 20.3699 19.2658 20.3699 19.268C20.3699 19.2702 20.3699 19.2724 20.3699 19.2745C20.3699 19.2766 20.3699 19.2788 20.3699 19.2809C20.3699 19.283 20.3699 19.2851 20.3699 19.2872C20.3699 19.2892 20.3699 19.2913 20.3699 19.2933C20.3699 19.2954 20.3699 19.2974 20.3699 19.2994C20.3699 19.3014 20.3699 19.3034 20.3699 19.3054C20.3699 19.3073 20.3699 19.3093 20.3699 19.3112C20.3699 19.3132 20.3699 19.3151 20.3699 19.317C20.3699 19.3189 20.3699 19.3208 20.3699 19.3227C20.3699 19.3245 20.3699 19.3264 20.3699 19.3282C20.3699 19.33 20.3699 19.3319 20.3699 19.3337C20.3699 19.3355 20.3699 19.3372 20.3699 19.339C20.3699 19.3408 20.3699 19.3425 20.3699 19.3442C20.3699 19.346 20.3699 19.3477 20.3699 19.3494C20.3699 19.3511 20.3699 19.3527 20.3699 19.3544C20.3699 19.3561 20.3699 19.3577 20.3699 19.3593C20.3699 19.3609 20.3699 19.3626 20.3699 19.3641C20.3699 19.3657 20.3699 19.3673 20.3699 19.3688C20.3699 19.3704 20.3699 19.3719 20.3699 19.3734C20.3699 19.375 20.3699 19.3765 20.3699 19.3779C20.3699 19.3794 20.3699 19.3809 20.3699 19.3823C20.3699 19.3838 20.3699 19.3852 20.3699 19.3866C20.3699 19.388 20.3699 19.3894 20.3699 19.3908C20.3699 19.3922 20.3699 19.3935 20.3699 19.3948C20.3699 19.3962 20.3699 19.3975 20.3699 19.3988C20.3699 19.4001 20.3699 19.4014 20.3699 19.4026C20.3699 19.4039 20.3699 19.4051 20.3699 19.4064C20.3699 19.4076 20.3699 19.4088 20.3699 19.41C20.3699 19.4112 20.3699 19.4124 20.3699 19.4135C20.3699 19.4147 20.3699 19.4158 20.3699 19.4169C20.3699 19.418 20.3699 19.4191 20.3699 19.4202C20.3699 19.4213 20.3699 19.4223 20.3699 19.4234C20.3699 19.4244 20.3699 19.4255 20.3699 19.4265C20.3699 19.4275 20.3699 19.4285 20.3699 19.4294C20.3699 19.4304 20.3699 19.4313 20.3699 19.4323C20.3699 19.4332 20.3699 19.4341 20.3699 19.435C20.3699 19.4359 20.3699 19.4368 20.3699 19.4376C20.3699 19.4385 20.3699 19.4393 20.3699 19.4401C20.3699 19.4409 20.3699 19.4417 20.3699 19.4425C20.3699 19.4433 20.3699 19.4441 20.3699 19.4448C20.3699 19.4455 20.3699 19.4463 20.3699 19.447C20.3699 19.4477 20.3699 19.4484 20.3699 19.449C20.3699 19.4497 20.3699 19.4503 20.3699 19.451C20.3699 19.4516 20.3699 19.4522 20.3699 19.4528C20.3699 19.4534 20.3699 19.4539 20.3699 19.4545C20.3699 19.455 20.3699 19.4556 20.3699 19.4561C20.3699 19.4566 20.3699 19.4571 20.3699 19.4576C20.3699 19.458 20.3699 19.4585 20.3699 19.4589C20.3699 19.4594 20.3699 19.4598 20.3699 19.4602C20.3699 19.4606 20.3699 19.4609 20.3699 19.4613C20.3699 19.4616 20.3699 19.462 20.3699 19.4623C20.3699 19.4626 20.3699 19.4629 20.3699 19.4632C20.3699 19.4635 20.3699 19.4637 20.3699 19.464C20.3699 19.4642 20.3699 19.4644 20.3699 19.4646C20.3699 19.4648 20.3699 19.465 20.3699 19.4652C20.3699 19.4653 20.3699 19.4655 20.3699 19.4656C20.3699 19.4657 20.3699 19.4658 20.3699 19.4659C20.3699 19.466 20.3699 19.466 20.3699 19.4661C20.3699 19.4661 20.3699 19.4661 20.8699 19.4661ZM23.8428 8.55567L24.5795 19.4997L25.5773 19.4325L24.8405 8.4885L23.8428 8.55567ZM24.5795 19.4997L24.6946 21.2094L25.6924 21.1422L25.5773 19.4325L24.5795 19.4997ZM20.8699 19.9661H25.0784V18.9661H20.8699V19.9661ZM10.3466 1.97708L7.19851 3.10166L7.53492 4.04337L10.683 2.91879L10.3466 1.97708ZM7.19851 3.10166L5.69371 3.63921L6.03012 4.58093L7.53492 4.04337L7.19851 3.10166ZM13.7471 9.46342V5.18512H12.7471V9.46342H13.7471ZM7.01285 3.92575L12.8933 9.81666L13.601 9.11019L7.72059 3.21928L7.01285 3.92575ZM15.82 2.92184L19.1634 4.04642L19.4822 3.09861L16.1389 1.97403L15.82 2.92184ZM19.1634 4.04642L20.7876 4.59276L21.1064 3.64494L19.4822 3.09861L19.1634 4.04642ZM13.5952 9.82239L19.6708 3.93148L18.9747 3.21355L12.8991 9.10446L13.5952 9.82239ZM13.7471 25.7736V22.6397H12.7471V25.7736H13.7471ZM13.7471 22.6397V9.46342H12.7471V22.6397H13.7471ZM13.2471 23.1397H15.3261V22.1397H13.2471V23.1397ZM13.2471 18.9744H15.3261V17.9744H13.2471V18.9744ZM13.2471 14.9678H15.3261V13.9678H13.2471V14.9678ZM2.40273 21.743C2.10879 21.743 1.87826 21.4906 1.90477 21.1979L0.908842 21.1077C0.82933 21.986 1.52091 22.743 2.40273 22.743V21.743ZM24.8405 8.4885C24.691 6.26698 23.2168 4.35479 21.1064 3.64494L20.7876 4.59276C22.5143 5.17355 23.7204 6.73807 23.8428 8.55567L24.8405 8.4885ZM15.3789 1.5C15.6893 1.5 15.8448 1.87507 15.6256 2.0947L16.3333 2.80117C17.1817 1.95132 16.5797 0.5 15.3789 0.5V1.5ZM11.1153 0.5C9.91453 0.5 9.31262 1.95132 10.161 2.80117L10.8687 2.0947C10.6495 1.87507 10.805 1.5 11.1153 1.5V0.5ZM24.1958 22.743C25.0639 22.743 25.7507 22.0083 25.6924 21.1422L24.6946 21.2094C24.7141 21.4981 24.4851 21.743 24.1958 21.743V22.743ZM19.8699 26.2736C20.6983 26.2736 21.3699 25.602 21.3699 24.7736H20.3699C20.3699 25.0497 20.146 25.2736 19.8699 25.2736V26.2736ZM3.06227 8.4129C3.22039 6.66641 4.37869 5.17086 6.03012 4.58093L5.69371 3.63921C3.6753 4.36024 2.2596 6.18813 2.06635 8.32274L3.06227 8.4129ZM6.62437 25.2736C6.34823 25.2736 6.12437 25.0497 6.12437 24.7736H5.12437C5.12437 25.602 5.79594 26.2736 6.62437 26.2736V25.2736Z" fill="#FFFBF1"/>
</svg>
