<svg width="75" height="75" viewBox="0 0 75 75" fill="none" xmlns="http://www.w3.org/2000/svg">
<g clip-path="url(#clip0_273_2)">
<path d="M75 0H0V75H75V0Z" fill="white"/>
<path d="M75 -1.53076H-1.53064V74.9998H75V-1.53076Z" fill="#281C02"/>
<path d="M82.6533 51.5875L33.2202 -8.79346L-9.18351 25.9219L40.2496 86.3029L82.6533 51.5875Z" fill="url(#paint0_radial_273_2)"/>
<path d="M38.5465 12.2451C41.3855 12.2451 43.7191 12.634 45.5475 13.4118C47.376 14.1438 49.3728 15.2419 51.538 16.7059C52.1636 17.1634 52.6448 17.3923 52.9816 17.3923C53.8958 17.3923 54.4973 15.9968 54.786 13.2059H56.4459C56.2535 16.1799 56.1573 21.4413 56.1573 28.9903H54.4973C54.0643 26.5655 53.6071 24.5753 53.1259 23.0197C52.6448 21.4184 51.899 20.0229 50.8886 18.8333C49.4931 17.1864 47.6647 15.8825 45.4032 14.9216C43.1898 13.9608 40.8562 13.4804 38.4022 13.4804C35.2265 13.4804 32.4357 14.4641 30.0299 16.4315C27.6241 18.3988 25.7716 21.2125 24.4724 24.8727C23.1732 28.4871 22.5236 32.7192 22.5236 37.5688C22.5236 45.8043 23.895 51.8434 26.6377 55.6867C29.4285 59.4841 33.7829 61.3828 39.7014 61.3828C42.5884 61.3828 45.0905 60.6735 47.2076 59.2553C48.0737 58.7062 48.627 58.1802 48.8676 57.6769C49.1563 57.1279 49.3007 56.3958 49.3007 55.4808V48.8924C49.3007 46.9709 49.1082 45.5754 48.7232 44.7062C48.3383 43.8368 47.6647 43.2422 46.7024 42.9218C45.7401 42.6016 44.1763 42.3957 42.011 42.3042V40.9315C44.513 41.0688 47.9053 41.1376 52.1876 41.1376C55.4596 41.1376 57.9617 41.0688 59.6939 40.9315V42.3042C58.5873 42.3957 57.7692 42.5786 57.2399 42.8532C56.7588 43.1277 56.4219 43.6539 56.2295 44.4316C56.0852 45.2095 56.0129 46.4676 56.0129 48.2062V61.7946H54.5694C54.5214 60.8796 54.329 60.0102 53.9921 59.1867C53.6552 58.3173 53.1981 57.8828 52.6208 57.8828C52.332 57.8828 52.0433 57.9513 51.7546 58.0886C51.4659 58.2259 50.9607 58.5461 50.239 59.0494C48.5549 60.2848 46.7987 61.1998 44.9702 61.7946C43.1898 62.4351 41.1929 62.7553 38.9797 62.7553C34.0235 62.7553 29.7652 61.7946 26.2046 59.8729C22.6921 57.9056 19.9975 55.0919 18.1209 51.4317C16.2444 47.7715 15.3062 43.4023 15.3062 38.3237C15.3062 33.108 16.2925 28.5328 18.2653 24.5982C20.2863 20.6177 23.0529 17.5752 26.5655 15.4706C30.0779 13.3203 34.0718 12.2451 38.5465 12.2451Z" fill="#422F0A"/>
<path d="M69.6429 5.35742H5.35718V69.6431H69.6429V5.35742Z" stroke="#422F0A" stroke-width="3"/>
</g>
<defs>
<radialGradient id="paint0_radial_273_2" cx="0" cy="0" r="1" gradientUnits="userSpaceOnUse" gradientTransform="translate(36.7348 38.7546) rotate(140.693) scale(27.4009 39.0176)">
<stop stop-color="#46391F"/>
<stop offset="1" stop-color="#281C02"/>
</radialGradient>
<clipPath id="clip0_273_2">
<rect width="75" height="75" fill="white"/>
</clipPath>
</defs>
</svg>
