<svg width="75" height="75" viewBox="0 0 75 75" fill="none" xmlns="http://www.w3.org/2000/svg">
<g clip-path="url(#clip0_273_11)">
<path d="M75 0H0V75H75V0Z" fill="white"/>
<path d="M75 0H0V75H75V0Z" fill="#FFF6E2"/>
<path d="M82.3005 51.7332L33.9635 -7.30908L-7.50005 26.6365L40.837 85.6788L82.3005 51.7332Z" fill="url(#paint0_radial_273_11)"/>
<path d="M38.8829 12C41.617 12 43.8646 12.3927 45.6256 13.178C47.3866 13.9171 49.3097 15.0258 51.3951 16.504C51.9976 16.966 52.461 17.197 52.7854 17.197C53.6659 17.197 54.2451 15.788 54.5232 12.9701H56.122C55.9366 15.9728 55.8439 21.2853 55.8439 28.9076H54.2451C53.828 26.4592 53.3878 24.4497 52.9244 22.879C52.461 21.2622 51.7427 19.8532 50.7695 18.6522C49.4256 16.9891 47.6646 15.6725 45.4866 14.7025C43.3549 13.7323 41.1074 13.2472 38.7439 13.2472C35.6854 13.2472 32.9975 14.2405 30.6805 16.2269C28.3634 18.2133 26.5792 21.0544 25.328 24.75C24.0768 28.3994 23.4512 32.6725 23.4512 37.5693C23.4512 45.8845 24.772 51.9823 27.4134 55.8628C30.1013 59.697 34.2951 61.6141 39.9951 61.6141C42.7756 61.6141 45.1854 60.8981 47.2244 59.466C48.0585 58.9117 48.5915 58.3804 48.8232 57.8722C49.1012 57.3179 49.2403 56.5788 49.2403 55.6549V49.0027C49.2403 47.0625 49.0549 45.6535 48.6842 44.7758C48.3134 43.8981 47.6646 43.2976 46.7378 42.9742C45.811 42.6508 44.3049 42.4429 42.2195 42.3505V40.9647C44.6293 41.1032 47.8964 41.1725 52.0208 41.1725C55.172 41.1725 57.5817 41.1032 59.25 40.9647V42.3505C58.1842 42.4429 57.3964 42.6277 56.8866 42.9049C56.4232 43.1821 56.0988 43.7133 55.9134 44.4986C55.7744 45.2839 55.7049 46.5544 55.7049 48.3097V62.0299H54.3146C54.2683 61.1059 54.083 60.2283 53.7586 59.3968C53.4341 58.519 52.9939 58.0801 52.4378 58.0801C52.1597 58.0801 51.8817 58.1494 51.6037 58.288C51.3256 58.4266 50.839 58.75 50.1439 59.2582C48.5219 60.5054 46.8305 61.4293 45.0695 62.0299C43.3549 62.6766 41.4317 63 39.3 63C34.5269 63 30.4256 62.0299 26.9963 60.0897C23.6134 58.1032 21.0183 55.2622 19.2109 51.5665C17.4037 47.8709 16.5 43.4593 16.5 38.3315C16.5 33.0652 17.45 28.4456 19.35 24.4728C21.2963 20.4538 23.961 17.3818 27.3439 15.2568C30.7268 13.0856 34.5732 12 38.8829 12Z" fill="#F2E4C5"/>
<path d="M70.125 4.875H4.875V70.125H70.125V4.875Z" stroke="#F2E4C5" stroke-width="3"/>
</g>
<defs>
<radialGradient id="paint0_radial_273_11" cx="0" cy="0" r="1" gradientUnits="userSpaceOnUse" gradientTransform="translate(37.4003 39.1848) rotate(140.693) scale(26.7934 38.1525)">
<stop stop-color="#FFFDF9"/>
<stop offset="1" stop-color="#FFF6E2"/>
</radialGradient>
<clipPath id="clip0_273_11">
<rect width="75" height="75" fill="white"/>
</clipPath>
</defs>
</svg>
