<svg width="19" height="13" viewBox="0 0 19 13" fill="none" xmlns="http://www.w3.org/2000/svg">
<path d="M10.0125 6.02959L10.4581 5.8027L10.1842 5.38436L9.73869 5.61124L10.0125 6.02959ZM5.46823 8.34365L5.19439 7.92531L4.74883 8.15219L5.02267 8.57054L5.46823 8.34365ZM17.8705 1.98282L18.3161 1.75593L17.8705 1.98282ZM17.5271 3.27328L17.2532 2.85494L17.5271 3.27328ZM9.69202 2.71752L9.72336 2.24471L9.69202 2.71752ZM0.649719 9.0061L2.13509 11.2753L3.02621 10.8215L1.54083 8.55232L0.649719 9.0061ZM2.05598 6.61663L8.3116 3.43113L7.76391 2.59444L1.50829 5.77995L2.05598 6.61663ZM9.66068 3.19033L12.7512 3.51111L12.8139 2.56549L9.72336 2.24471L9.66068 3.19033ZM13.3163 7.73232L14.5621 5.24283L13.606 4.81024L12.3603 7.29973L13.3163 7.73232ZM13.0564 3.45664L16.4994 1.70339L15.9517 0.866704L12.5087 2.61996L13.0564 3.45664ZM17.2188 1.89484L17.4249 2.20971L18.3161 1.75593L18.1099 1.44107L17.2188 1.89484ZM17.2532 2.85494L13.8102 4.60819L14.3579 5.44488L17.8009 3.69162L17.2532 2.85494ZM12.337 3.26519L13.6385 5.25342L14.5296 4.79965L13.2281 2.81141L12.337 3.26519ZM12.1594 8.40179L10.4581 5.8027L9.56697 6.25647L11.2683 8.85557L12.1594 8.40179ZM9.73869 5.61124L5.19439 7.92531L5.74207 8.76199L10.2864 6.44793L9.73869 5.61124ZM5.7321 12.2325L7.44342 11.3611L6.89573 10.5244L5.18441 11.3958L5.7321 12.2325ZM7.44342 11.3611L11.9877 9.04702L11.44 8.21034L6.89573 10.5244L7.44342 11.3611ZM5.02267 8.57054L6.72402 11.1696L7.61513 10.7159L5.91379 8.11676L5.02267 8.57054ZM17.4249 2.20971C17.5762 2.44075 17.4993 2.72963 17.2532 2.85494L17.8009 3.69162C18.5391 3.3157 18.7698 2.44906 18.3161 1.75593L17.4249 2.20971ZM16.4994 1.70339C16.7455 1.57808 17.0676 1.6638 17.2188 1.89484L18.1099 1.44107C17.6562 0.747933 16.69 0.490784 15.9517 0.866704L16.4994 1.70339ZM8.3116 3.43113C8.71593 3.22523 9.18694 3.14116 9.66068 3.19033L9.72336 2.24471C9.03529 2.17329 8.35117 2.2954 7.76391 2.59444L8.3116 3.43113ZM11.9877 9.04702C12.574 8.74849 13.0372 8.29009 13.3163 7.73232L12.3603 7.29973C12.1669 7.68606 11.8461 8.00356 11.44 8.21034L11.9877 9.04702ZM2.13509 11.2753C2.89129 12.4305 4.50172 12.8591 5.7321 12.2325L5.18441 11.3958C4.44619 11.7718 3.47992 11.5146 3.02621 10.8215L2.13509 11.2753ZM1.54083 8.55232C1.08712 7.85919 1.31775 6.99255 2.05598 6.61663L1.50829 5.77995C0.277917 6.40648 -0.106478 7.85088 0.649719 9.0061L1.54083 8.55232Z" fill="#A5A5A5"/>
</svg>
