<svg width="26" height="26" viewBox="0 0 26 26" fill="none" xmlns="http://www.w3.org/2000/svg">
<path d="M5.27528 1C5.27528 0.723858 5.05142 0.5 4.77528 0.5C4.49914 0.5 4.27528 0.723858 4.27528 1H5.27528ZM21.5449 1C21.5449 0.723858 21.3211 0.5 21.0449 0.5C20.7688 0.5 20.5449 0.723858 20.5449 1H21.5449ZM3 25.5H23V24.5H3V25.5ZM4.77528 2.56742H3V3.56742H4.77528V2.56742ZM5.27528 3.06742V1H4.27528V3.06742H5.27528ZM23 2.56742H21.0449V3.56742H23V2.56742ZM21.0449 2.56742H4.77528V3.56742H21.0449V2.56742ZM21.5449 3.06742V1H20.5449V3.06742H21.5449ZM0.5 5.06742V8.73034H1.5V5.06742H0.5ZM0.5 8.73034V23H1.5V8.73034H0.5ZM25.5 23V8.73034H24.5V23H25.5ZM25.5 8.73034V5.06742H24.5V8.73034H25.5ZM1 9.23034H25V8.23034H1V9.23034ZM23 3.56742C23.8284 3.56742 24.5 4.23899 24.5 5.06742H25.5C25.5 3.6867 24.3807 2.56742 23 2.56742V3.56742ZM23 25.5C24.3807 25.5 25.5 24.3807 25.5 23H24.5C24.5 23.8284 23.8284 24.5 23 24.5V25.5ZM3 24.5C2.17157 24.5 1.5 23.8284 1.5 23H0.5C0.5 24.3807 1.61929 25.5 3 25.5V24.5ZM3 2.56742C1.61929 2.56742 0.5 3.6867 0.5 5.06742H1.5C1.5 4.23899 2.17157 3.56742 3 3.56742V2.56742Z" fill="#BC820D"/>
<rect x="20.1798" y="12.6855" width="1.35" height="1.35" fill="#BC820D"/>
<rect x="14.7865" y="12.6855" width="1.35" height="1.35" fill="#BC820D"/>
<rect x="9.39331" y="12.6855" width="1.35" height="1.35" fill="#BC820D"/>
<rect x="4" y="12.6855" width="1.35" height="1.35" fill="#BC820D"/>
<rect x="4" y="16" width="1.35" height="1.35" fill="#BC820D"/>
<rect x="4" y="20" width="1.35" height="1.35" fill="#BC820D"/>
<rect x="14.7865" y="16" width="1.35" height="1.35" fill="#BC820D"/>
<rect x="14.7865" y="20" width="1.35" height="1.35" fill="#BC820D"/>
<rect x="9.39331" y="16" width="1.35" height="1.35" fill="#BC820D"/>
<rect x="9.39331" y="20" width="1.35" height="1.35" fill="#BC820D"/>
<rect x="20.1798" y="16" width="1.35" height="1.35" fill="#BC820D"/>
<rect x="20.1798" y="20" width="1.35" height="1.35" fill="#BC820D"/>
</svg>
