<svg width="36" height="26" viewBox="0 0 36 26" fill="none" xmlns="http://www.w3.org/2000/svg">
<path d="M28.7508 6.4C28.531 9.45025 26.2683 11.8 23.8008 11.8C21.3333 11.8 19.0668 9.451 18.8508 6.4C18.6258 3.22675 20.8285 1 23.8008 1C26.773 1 28.9758 3.2845 28.7508 6.4Z" stroke="#FFFBF1" stroke-linecap="round" stroke-linejoin="round"/>
<path d="M23.8007 16.5999C18.9129 16.5999 14.2127 19.0276 13.0352 23.7556C12.8792 24.3811 13.2714 24.9999 13.9142 24.9999H33.6879C34.3307 24.9999 34.7207 24.3811 34.5669 23.7556C33.3894 18.9519 28.6892 16.5999 23.8007 16.5999Z" stroke="#FFFBF1" stroke-miterlimit="10"/>
<path d="M13.6011 7.74565C13.4256 10.1816 11.5971 12.1001 9.62611 12.1001C7.65511 12.1001 5.82361 10.1824 5.65111 7.74565C5.47186 5.2114 7.25161 3.40015 9.62611 3.40015C12.0006 3.40015 13.7804 5.2579 13.6011 7.74565Z" stroke="#FFFBF1" stroke-linecap="round" stroke-linejoin="round"/>
<path d="M14.0507 16.7499C12.697 16.1296 11.206 15.8911 9.62573 15.8911C5.72573 15.8911 1.96823 17.8299 1.02698 21.6061C0.903234 22.1056 1.21673 22.5999 1.72973 22.5999H10.1507" stroke="#FFFBF1" stroke-miterlimit="10" stroke-linecap="round"/>
</svg>
