<svg width="26" height="25" viewBox="0 0 26 25" fill="none" xmlns="http://www.w3.org/2000/svg">
<path d="M1 9.70297H25M1 9.70297L11.7045 1.01884C12.437 0.424591 13.4851 0.4229 14.2196 1.01478L18.9406 4.81957M1 9.70297V15.0891M25 9.70297V21.8416C25 22.9462 24.1046 23.8416 23 23.8416H7.37624M25 9.70297L22.4653 7.66024M22.4653 7.66024V3.78218C22.4653 2.80884 21.6763 2.0198 20.703 2.0198V2.0198C19.7296 2.0198 18.9406 2.80884 18.9406 3.78218V4.81957M22.4653 7.66024L18.9406 4.81957M1 15.0891V21.8416C1 22.9462 1.89543 23.8416 3 23.8416H7.37624M1 15.0891H5.37624C6.48081 15.0891 7.37624 15.9845 7.37624 17.0891V23.8416M20.6436 17.3663V15.5446C20.6436 14.44 19.7481 13.5446 18.6436 13.5446H14.9604C13.8558 13.5446 12.9604 14.44 12.9604 15.5446V17.3663C12.9604 18.4709 13.8558 19.3663 14.9604 19.3663H18.6436C19.7481 19.3663 20.6436 18.4709 20.6436 17.3663Z" stroke="#BC820D" stroke-linecap="square"/>
</svg>
