<svg width="25" height="24" viewBox="0 0 25 24" fill="none" xmlns="http://www.w3.org/2000/svg">
<path d="M24.1037 12C24.1037 18.3521 18.9637 23.5 12.6251 23.5C6.28648 23.5 1.14648 18.3521 1.14648 12C1.14648 5.64788 6.28648 0.5 12.6251 0.5C18.9637 0.5 24.1037 5.64788 24.1037 12Z" stroke="#FFFBF1"/>
<path d="M12.3698 6.7749C12.3698 6.49876 12.1459 6.2749 11.8698 6.2749C11.5936 6.2749 11.3698 6.49876 11.3698 6.7749H12.3698ZM16.654 14.6263C16.9302 14.6263 17.154 14.4024 17.154 14.1263C17.154 13.8501 16.9302 13.6263 16.654 13.6263V14.6263ZM11.3698 6.7749V13.1263H12.3698V6.7749H11.3698ZM12.8698 14.6263H16.654V13.6263H12.8698V14.6263ZM11.3698 13.1263C11.3698 13.9547 12.0413 14.6263 12.8698 14.6263V13.6263C12.5936 13.6263 12.3698 13.4024 12.3698 13.1263H11.3698Z" fill="#FFFBF1"/>
</svg>
