<svg width="20" height="26" viewBox="0 0 20 26" fill="none" xmlns="http://www.w3.org/2000/svg">
<path d="M15.4411 17.1641L17.0109 14.3017C18.3284 11.8992 18.535 9.04213 17.5766 6.47509L17.5201 6.32361C17.3088 5.75756 17.034 5.21726 16.701 4.71306C15.8776 3.46607 14.7213 2.47463 13.3633 1.85109L12.7429 1.56621C11.9303 1.19314 11.0468 1 10.1527 1C9.08253 1 8.03052 1.27669 7.0988 1.80321L6.48031 2.15273C5.71488 2.58528 5.01769 3.12876 4.41143 3.76549L3.92327 4.27818C3.17394 5.06517 2.59796 6.00055 2.23253 7.02394C1.4434 9.23384 1.69495 11.682 2.91698 13.6852L5.03917 17.1641L10.0354 25L15.4411 17.1641Z" stroke="#FFFBF1" stroke-linecap="square"/>
<ellipse cx="9.99439" cy="9.61532" rx="2.3343" ry="2.33846" fill="#FFFBF1"/>
</svg>
