<svg width="26" height="26" viewBox="0 0 26 26" fill="none" xmlns="http://www.w3.org/2000/svg">
<path d="M13 1L2.64394 2.87363C1.69216 3.04583 1 3.87446 1 4.84168V22.7196C1 23.9278 2.06304 24.8601 3.26091 24.7025L13 23.4211M13 1L23.3561 2.87363C24.3078 3.04583 25 3.87445 25 4.84168V22.7196C25 23.9278 23.937 24.8601 22.7391 24.7025L13 23.4211M13 1V23.4211M3.84211 7.86842L9.68421 6.36842M3.84211 11.7368L9.68421 10.2368M3.84211 15.8026L9.68421 14.3026M3.84211 20.9342L9.68421 19.4342M22.1579 7.86842L16.3158 6.36842M22.1579 11.7368L16.3158 10.2368M17.8184 19.82L19.6605 20.293C20.9259 20.6179 22.1579 19.6622 22.1579 18.3558V17.354C22.1579 16.441 21.5396 15.6439 20.6553 15.4168L18.8132 14.9439C17.5478 14.619 16.3158 15.5746 16.3158 16.881V17.8829C16.3158 18.7959 16.9341 19.593 17.8184 19.82Z" stroke="#BC820D" stroke-linecap="round"/>
</svg>
