<svg width="26" height="25" viewBox="0 0 26 25" fill="none" xmlns="http://www.w3.org/2000/svg">
<path d="M24.1782 17.4618L19.7518 15.5765C18.486 15.0374 17.036 15.1556 15.8743 15.8926C14.5187 16.7526 12.7903 16.7603 11.4271 15.9124L11.063 15.686C10.4076 15.2783 9.85856 14.7205 9.46142 14.0586L9.43285 14.011C8.45013 12.3731 8.46652 10.323 9.47529 8.7011L9.96345 7.91622C10.0314 7.80695 10.0871 7.69055 10.1296 7.5691C10.2849 7.12561 10.2558 6.63839 10.0489 6.21653L8.19216 2.43077C7.51217 1.0443 5.90263 0.385562 4.4457 0.897457C3.99433 1.05605 3.58663 1.31868 3.25561 1.66409L2.84713 2.09034C2.12677 2.84201 1.63367 3.78209 1.42477 4.80204L1.31168 5.35419C1.10609 6.35794 1.10913 7.39325 1.3206 8.39578L1.67949 10.0972C2.01286 11.6776 2.58602 13.1977 3.37909 14.6048L3.49096 14.8032C4.42253 16.456 5.61936 17.9445 7.03362 19.2092L7.15898 19.3213C8.67741 20.6791 10.4115 21.7744 12.29 22.5622L13.2672 22.9719C14.339 23.4214 15.4696 23.7155 16.6247 23.8451L17.7938 23.9763C18.7048 24.0786 19.627 23.9902 20.502 23.7168L20.6193 23.6801C21.5131 23.4008 22.3303 22.9189 23.0074 22.2719L23.0802 22.2023C23.6529 21.6551 24.1032 20.993 24.4016 20.2593L24.8633 19.1243C24.9527 18.9046 24.9794 18.6645 24.9404 18.4305C24.8684 17.9986 24.581 17.6334 24.1782 17.4618Z" stroke="#FFFBF1"/>
<path d="M20.0073 9.50353L19.3928 8.37418C18.7367 7.16834 17.7405 6.18204 16.5282 5.53799L15.584 5.03638" stroke="#FFFBF1" stroke-linecap="round"/>
<path d="M23.8175 7.92709L23.0041 6.50164C21.8393 4.46045 20.1008 2.80622 18.0043 1.74421L16.7227 1.09497" stroke="#FFFBF1" stroke-linecap="round"/>
</svg>
