<svg width="26" height="26" viewBox="0 0 26 26" fill="none" xmlns="http://www.w3.org/2000/svg">
<path d="M6.15702 12.8812L6.15703 12.3812L5.65702 12.3812L5.65702 12.8812L6.15702 12.8812ZM6.15703 19.7327L5.65703 19.7327L5.65703 20.2327L6.15703 20.2327L6.15703 19.7327ZM17.8685 24.0081C17.605 24.0908 17.4584 24.3714 17.5411 24.6348C17.6238 24.8983 17.9044 25.0449 18.1679 24.9622L17.8685 24.0081ZM23.6711 24.9655C23.9364 25.0422 24.2136 24.8893 24.2903 24.624C24.3669 24.3587 24.214 24.0815 23.9487 24.0048L23.6711 24.9655ZM22.532 17.8728L22.4427 17.3809L22.532 17.8728ZM18.9015 17.8641L18.9859 17.3712L18.9015 17.8641ZM9.92192 10.8057L9.51837 11.1009L9.92192 10.8057ZM3 25.5L8.6 25.5L8.6 24.5L3 24.5L3 25.5ZM1.5 23L1.5 12.8812L0.500002 12.8812L0.500002 23L1.5 23ZM2.08739 11.1108L4.53126 7.83353L3.72961 7.23575L1.28574 10.5131L2.08739 11.1108ZM10.3255 10.5105L7.93275 7.23944L7.12564 7.82984L9.51837 11.1009L10.3255 10.5105ZM4.63043 7.53464L4.63044 2L3.63044 2L3.63043 7.53464L4.63043 7.53464ZM5.13044 1.5L6.52919 1.5L6.52919 0.5L5.13043 0.5L5.13044 1.5ZM7.02919 2L7.02919 7.53464L8.02919 7.53464L8.02919 2L7.02919 2ZM4.13043 8.03464L7.52919 8.03464L7.52919 7.03464L4.13044 7.03464L4.13043 8.03464ZM10.6 12.3812L6.15703 12.3812L6.15702 13.3812L10.6 13.3812L10.6 12.3812ZM5.65702 12.8812L5.65703 19.7327L6.65703 19.7327L6.65702 12.8812L5.65702 12.8812ZM11.1 23L11.1 19.7327L10.1 19.7327L10.1 23L11.1 23ZM11.1 19.7327L11.1 12.8812L10.1 12.8812L10.1 19.7327L11.1 19.7327ZM6.15703 20.2327L10.6 20.2327L10.6 19.2327L6.15703 19.2327L6.15703 20.2327ZM18.1679 24.9622L20.9447 24.0909L20.6454 23.1368L17.8685 24.0081L18.1679 24.9622ZM20.6562 24.0942L23.6711 24.9655L23.9487 24.0048L20.9339 23.1335L20.6562 24.0942ZM21.295 23.6139L21.295 18.1881L20.295 18.1881L20.295 23.6139L21.295 23.6139ZM22.8065 9.88614L18.6221 9.88614L18.6221 10.8861L22.8065 10.8861L22.8065 9.88614ZM20.8794 17.6953L18.9859 17.3712L18.8172 18.3569L20.7107 18.681L20.8794 17.6953ZM20.8843 18.6801L22.6213 18.3648L22.4427 17.3809L20.7057 17.6962L20.8843 18.6801ZM25.5 14.9166L25.5 12.5796L24.5 12.5796L24.5 14.9166L25.5 14.9166ZM16.8917 14.8882L16.8917 12.6165L15.8917 12.6165L15.8917 14.8882L16.8917 14.8882ZM22.6213 18.3648C23.292 18.243 23.9126 17.9284 24.4071 17.4594L23.719 16.7338C23.3655 17.069 22.922 17.2939 22.4427 17.3809L22.6213 18.3648ZM18.9859 17.3712C18.5049 17.2889 18.0581 17.0686 17.7 16.7372L17.0208 17.4712C17.5212 17.9342 18.1452 18.2419 18.8172 18.3569L18.9859 17.3712ZM18.6221 9.88614C18.138 9.88614 17.6625 10.0149 17.2445 10.2592L17.749 11.1225C18.014 10.9677 18.3153 10.8861 18.6221 10.8861L18.6221 9.88614ZM22.8065 10.8861C23.113 10.8861 23.4138 10.9693 23.6768 11.1268L24.1906 10.269C23.7724 10.0185 23.294 9.88614 22.8065 9.88614L22.8065 10.8861ZM6.52919 1.5C6.80534 1.5 7.02919 1.72386 7.02919 2L8.02919 2C8.02919 1.17157 7.35762 0.5 6.52919 0.5L6.52919 1.5ZM24.4071 17.4594C25.1048 16.7976 25.5 15.8782 25.5 14.9166L24.5 14.9166C24.5 15.6038 24.2176 16.2609 23.719 16.7338L24.4071 17.4594ZM4.63044 2C4.63044 1.72386 4.85429 1.5 5.13044 1.5L5.13043 0.5C4.30201 0.5 3.63044 1.17157 3.63044 2L4.63044 2ZM1.5 12.8812C1.5 12.2432 1.70602 11.6223 2.08739 11.1108L1.28574 10.5131C0.775588 11.1972 0.500002 12.0278 0.500002 12.8812L1.5 12.8812ZM17.7 16.7372C17.1847 16.2604 16.8917 15.5902 16.8917 14.8882L15.8917 14.8882C15.8917 15.8689 16.301 16.8051 17.0208 17.4712L17.7 16.7372ZM11.1 12.8812C11.1 12.0288 10.8287 11.1985 10.3255 10.5105L9.51837 11.1009C9.89629 11.6175 10.1 12.241 10.1 12.8812L11.1 12.8812ZM16.8917 12.6165C16.8917 12.0016 17.2181 11.4328 17.749 11.1225L17.2445 10.2592C16.4067 10.7488 15.8917 11.6462 15.8917 12.6165L16.8917 12.6165ZM8.6 25.5C9.98071 25.5 11.1 24.3807 11.1 23L10.1 23C10.1 23.8284 9.42843 24.5 8.6 24.5L8.6 25.5ZM25.5 12.5796C25.5 11.6328 25.0029 10.7555 24.1906 10.269L23.6768 11.1268C24.1874 11.4327 24.5 11.9843 24.5 12.5796L25.5 12.5796ZM3 24.5C2.17158 24.5 1.5 23.8284 1.5 23L0.500002 23C0.500002 24.3807 1.61929 25.5 3 25.5L3 24.5Z" fill="#BC820D"/>
</svg>
