<svg width="723" height="160" viewBox="0 0 723 160" fill="none" xmlns="http://www.w3.org/2000/svg">
<path d="M44.7594 0C50.2269 0 54.7214 0.787608 58.2428 2.36282C61.7643 3.84538 65.6101 6.06921 69.7802 9.03432C70.9849 9.96092 71.9116 10.4242 72.5603 10.4242C74.321 10.4242 75.4794 7.5981 76.0354 1.94586H79.2325C78.8618 7.96874 78.6765 18.6246 78.6765 33.9134H75.4794C74.6454 29.0025 73.765 24.9718 72.8383 21.8213C71.9116 18.5783 70.4752 15.7521 68.5292 13.343C65.8418 10.0072 62.3203 7.36644 57.9648 5.42059C53.702 3.47474 49.2076 2.50181 44.4814 2.50181C38.3652 2.50181 32.9904 4.49399 28.3569 8.47836C23.7234 12.4627 20.1556 18.1613 17.6536 25.5741C15.1515 32.8942 13.9004 41.4652 13.9004 51.2871C13.9004 67.9658 16.5415 80.1969 21.8237 87.9803C27.1985 95.6711 35.5851 99.5164 46.9835 99.5164C52.5437 99.5164 57.3625 98.0802 61.4399 95.2078C63.108 94.0958 64.1737 93.0303 64.6371 92.011C65.1931 90.8991 65.4711 89.4165 65.4711 87.5633V74.2204C65.4711 70.3287 65.1004 67.5025 64.359 65.742C63.6177 63.9815 62.3203 62.7769 60.4669 62.1283C58.6135 61.4797 55.6018 61.0627 51.4316 60.8774V58.0976C56.2505 58.3756 62.7837 58.5146 71.0312 58.5146C77.3328 58.5146 82.1516 58.3756 85.4877 58.0976V60.8774C83.3563 61.0627 81.7809 61.4333 80.7616 61.9893C79.8349 62.5453 79.1862 63.6108 78.8155 65.186C78.5375 66.7613 78.3985 69.3094 78.3985 72.8305V100.35H75.6184C75.5257 98.4972 75.155 96.7366 74.5064 95.0688C73.8577 93.3083 72.9773 92.428 71.8653 92.428C71.3093 92.428 70.7532 92.567 70.1972 92.8449C69.6412 93.1229 68.6682 93.7715 67.2781 94.7908C64.0347 97.2926 60.6523 99.1458 57.1308 100.35C53.702 101.648 49.8562 102.296 45.5934 102.296C36.0485 102.296 27.8472 100.35 20.9897 96.4587C14.2248 92.4743 9.03528 86.7757 5.42117 79.363C1.80706 71.9502 0 63.1012 0 52.816C0 42.2528 1.89973 32.9868 5.69918 25.0181C9.5913 16.9567 14.9198 10.7949 21.6847 6.53251C28.4496 2.1775 36.1411 0 44.7594 0Z" fill="#F4E9D0"/>
<path d="M125.965 4.72565C122.629 4.91096 120.173 5.2816 118.598 5.83756C117.115 6.39352 116.096 7.45911 115.54 9.03432C114.984 10.6095 114.706 13.1577 114.706 16.6787V85.6175C114.706 89.1386 114.984 91.6867 115.54 93.2619C116.096 94.8371 117.115 95.9027 118.598 96.4587C120.173 97.0146 122.629 97.3853 125.965 97.5706V100.299C125.693 100.281 125.415 100.315 125.129 100.299C120.945 100.055 115.339 99.9334 108.311 99.9334C100.342 99.9334 94.411 100.072 90.5189 100.35V97.5706C93.855 97.3853 96.2644 97.0146 97.7471 96.4587C99.3225 95.9027 100.388 94.8371 100.944 93.2619C101.5 91.6867 101.778 89.1386 101.778 85.6175V16.6787C101.778 13.1577 101.5 10.6095 100.944 9.03432C100.388 7.45911 99.3225 6.39352 97.7471 5.83756C96.2644 5.2816 93.855 4.91096 90.5189 4.72565V1.94586C94.411 2.22384 100.342 2.36282 108.311 2.36282C115.725 2.36282 121.61 2.22384 125.965 1.94586V4.72565Z" fill="#F4E9D0"/>
<path d="M205.05 88.6753C207.274 94.4202 210.471 97.3853 214.641 97.5706L214.515 100.135C213.501 100.059 212.519 100.209 211.318 100.153C208.128 100.007 204.278 99.9334 199.768 99.9334C191.798 99.9334 185.867 100.072 181.975 100.35V97.5706C185.496 97.3853 187.999 96.9683 189.481 96.3197C191.057 95.5784 191.844 94.2812 191.844 92.428C191.844 90.8528 191.288 88.6753 190.176 85.8955L181.697 63.1012H148.058L142.359 77.8341C140.505 82.8377 139.579 86.6367 139.579 89.2312C139.579 92.1037 140.552 94.1885 142.498 95.4857C144.536 96.783 147.595 97.4779 151.672 97.5706V100.35C146.39 100.072 141.061 99.9334 135.687 99.9334C131.968 99.9334 128.578 100.078 125.965 100.299C125.648 100.326 125.562 100.269 125.261 100.299V97.5706C129.895 96.4587 133.555 92.428 136.243 85.4785L168.909 1.25091H171.133L205.05 88.6753ZM180.585 60.3214L165.016 18.7636L149.17 60.3214H180.585Z" fill="#F4E9D0"/>
<path d="M298.658 4.72565C295.415 4.91096 293.005 5.42059 291.43 6.25453C289.855 6.9958 288.789 8.29304 288.233 10.1462C287.677 11.9068 287.399 14.5476 287.399 18.0686V101.045H284.202L225.82 10.8412V84.2276C225.82 87.8413 226.098 90.5285 226.654 92.289C227.303 94.0495 228.507 95.3468 230.268 96.1807C232.029 96.922 234.763 97.3853 238.469 97.5706V100.35C235.133 100.072 230.407 99.9334 224.291 99.9334C220.522 99.9334 217.328 99.9973 214.708 100.125C213.464 100.186 212.303 100.064 211.318 100.153L211.363 97.5706C214.607 97.3853 217.016 96.922 218.592 96.1807C220.167 95.3468 221.233 94.0495 221.789 92.289C222.345 90.4358 222.623 87.7487 222.623 84.2276V16.6787C222.623 13.1577 222.345 10.6095 221.789 9.03432C221.233 7.45911 220.167 6.39352 218.592 5.83756C217.109 5.2816 214.7 4.91096 211.363 4.72565V1.94586C214.422 2.22384 218.731 2.36282 224.291 2.36282C228.461 2.36282 232.075 2.22384 235.133 1.94586L284.202 77.5561V18.0686C284.202 14.4549 283.877 11.7678 283.229 10.0072C282.673 8.24671 281.514 6.9958 279.754 6.25453C277.993 5.42059 275.259 4.91096 271.552 4.72565V1.94586C274.888 2.22384 279.615 2.36282 285.731 2.36282C291.291 2.36282 295.6 2.22384 298.658 1.94586V4.72565Z" fill="#F4E9D0"/>
<path d="M348.74 0C354.3 0 359.026 0.787608 362.918 2.36282C366.81 3.93804 370.61 6.16187 374.317 9.03432C375.336 9.86826 376.216 10.2852 376.958 10.2852C378.811 10.2852 380.016 7.50544 380.572 1.94586H383.769C383.398 7.96874 383.213 18.6246 383.213 33.9134H380.016C378.996 27.8905 378.07 23.5819 377.236 20.9874C376.402 18.3003 375.012 15.7521 373.066 13.343C370.285 9.72926 366.718 7.04214 362.362 5.2816C358.099 3.42841 353.466 2.50181 348.462 2.50181C342.438 2.50181 337.156 4.49399 332.615 8.47836C328.167 12.4627 324.692 18.1613 322.19 25.5741C319.688 32.8942 318.437 41.5115 318.437 51.4261C318.437 61.526 319.781 70.1897 322.468 77.4171C325.155 84.6446 328.862 90.1578 333.588 93.9569C338.407 97.6633 343.828 99.5164 349.852 99.5164C354.485 99.5164 358.98 98.6362 363.335 96.8756C367.691 95.1151 371.12 92.4743 373.622 88.9532C375.475 86.3588 376.819 83.579 377.653 80.6139C378.487 77.6488 379.274 73.1084 380.016 66.9929H383.213C383.213 82.9304 383.398 94.0495 383.769 100.35H380.572C380.294 97.3853 379.877 95.3004 379.321 94.0958C378.857 92.7986 378.162 92.15 377.236 92.15C376.494 92.15 375.521 92.5206 374.317 93.2619C370.147 96.227 366.162 98.4972 362.362 100.072C358.563 101.555 353.976 102.296 348.601 102.296C339.797 102.296 332.059 100.304 325.387 96.3197C318.808 92.3353 313.664 86.5904 309.958 79.085C306.344 71.4869 304.536 62.4526 304.536 51.9821C304.536 41.7895 306.39 32.7552 310.097 24.8791C313.896 17.003 319.132 10.8875 325.804 6.53251C332.569 2.1775 340.214 0 348.74 0Z" fill="#F4E9D0"/>
<path d="M466.135 88.6753C468.359 94.4202 471.557 97.3853 475.727 97.5706V100.169C474.703 100.092 473.584 100.207 472.37 100.152C469.186 100.006 465.348 99.9334 460.853 99.9334C452.884 99.9334 446.953 100.072 443.061 100.35V97.5706C446.582 97.3853 449.084 96.9683 450.567 96.3197C452.142 95.5784 452.93 94.2812 452.93 92.428C452.93 90.8528 452.374 88.6753 451.262 85.8955L442.783 63.1012H409.144L403.444 77.8341C401.591 82.8377 400.664 86.6367 400.664 89.2312C400.664 92.1037 401.637 94.1885 403.583 95.4857C405.622 96.783 408.68 97.4779 412.758 97.5706V100.35C407.476 100.072 402.147 99.9334 396.772 99.9334C392.602 99.9334 386.224 100.072 383.444 100.35V97.9374C386.43 97.2207 390.544 95.3998 393.579 92.15C395.254 90.3575 396.373 87.949 397.328 85.4785L429.994 1.25091H432.218L466.135 88.6753ZM441.671 60.3214L426.102 18.7636L410.256 60.3214H441.671Z" fill="#F4E9D0"/>
<path d="M558.354 93.4009C556.222 96.5513 554.091 98.8215 551.96 100.211C549.828 101.601 547.002 102.296 543.48 102.296C539.681 102.296 536.53 101.184 534.028 98.9605C531.619 96.7366 529.812 92.8449 528.607 87.2854L525.549 73.3864C524.437 68.5681 523.371 64.8617 522.352 62.2673C521.425 59.6728 519.989 57.588 518.043 56.0127C516.097 54.4375 513.363 53.6499 509.841 53.6499H496.636V85.6175C496.636 89.1386 496.914 91.6867 497.47 93.2619C498.026 94.8371 499.045 95.9027 500.528 96.4587C502.103 97.0146 504.559 97.3853 507.895 97.5706V100.35C503.632 100.072 497.748 99.9334 490.242 99.9334C484.252 99.9334 479.413 100.012 475.727 100.169C474.508 100.221 473.416 100.086 472.449 100.156V97.5706C475.785 97.3853 478.195 97.0146 479.677 96.4587C481.253 95.9027 482.318 94.8371 482.874 93.2619C483.43 91.6867 483.709 89.1386 483.709 85.6175V16.6787C483.709 13.1577 483.43 10.6095 482.874 9.03432C482.318 7.45911 481.253 6.39352 479.677 5.83756C478.195 5.2816 475.785 4.91096 472.449 4.72565V1.94586C476.341 2.22384 481.994 2.36282 489.408 2.36282L504.42 2.22384C506.181 2.13118 508.173 2.08485 510.397 2.08485C521.147 2.08485 529.395 4.35501 535.14 8.89532C540.978 13.343 543.897 19.1342 543.897 26.269C543.897 29.8827 543.017 33.5428 541.256 37.2492C539.588 40.8629 536.716 44.1523 532.638 47.1174C528.653 49.9899 523.417 51.9357 516.931 52.955L518.599 53.233C524.715 54.2522 529.163 56.1054 531.943 58.7925C534.723 61.4797 536.762 65.742 538.059 71.5796L541.534 85.7565C542.461 90.0188 543.434 92.9839 544.453 94.6518C545.473 96.3197 546.863 97.1536 548.624 97.1536C550.199 97.1536 551.496 96.7366 552.516 95.9027C553.628 95.0688 554.879 93.7252 556.269 91.872L558.354 93.4009ZM506.922 4.72565C504.049 4.72565 501.872 5.04995 500.389 5.69857C498.999 6.34719 498.026 7.50543 497.47 9.17331C496.914 10.8412 496.636 13.343 496.636 16.6787V50.8701H505.949C515.124 50.8701 521.425 48.8316 524.854 44.7546C528.283 40.6776 529.997 35.0253 529.997 27.7979C529.997 20.1998 528.19 14.4549 524.576 10.5632C520.962 6.6715 515.077 4.72565 506.922 4.72565Z" fill="#F4E9D0"/>
<path d="M592.48 4.72565C589.144 4.91096 586.689 5.2816 585.113 5.83756C583.63 6.39352 582.611 7.45911 582.055 9.03432C581.499 10.6095 581.221 13.1577 581.221 16.6787V85.6175C581.221 89.1386 581.499 91.6867 582.055 93.2619C582.611 94.8371 583.63 95.9027 585.113 96.4587C586.689 96.922 589.144 97.1536 592.48 97.1536H602.628C608.373 97.1536 612.729 96.366 615.694 94.7908C618.752 93.1229 620.976 90.4821 622.366 86.8684C623.756 83.2547 624.776 78.0194 625.424 71.1626H628.622C628.344 74.035 628.205 77.8341 628.205 82.5597C628.205 87.8413 628.529 93.7715 629.178 100.35C622.876 100.072 612.265 99.9334 597.346 99.9334C579.553 99.9334 566.116 100.072 557.034 100.35V97.5706C557.492 97.5452 557.931 97.5163 558.354 97.4839C561.013 97.2802 562.983 96.9384 564.263 96.4587C565.838 95.9027 566.904 94.8371 567.46 93.2619C568.016 91.6867 568.294 89.1386 568.294 85.6175V16.6787C568.294 13.1577 568.016 10.6095 567.46 9.03432C566.904 7.45911 565.838 6.39352 564.263 5.83756C562.78 5.2816 560.37 4.91096 557.034 4.72565V1.94586C560.926 2.22384 566.857 2.36282 574.827 2.36282C582.24 2.36282 588.125 2.22384 592.48 1.94586V4.72565Z" fill="#F4E9D0"/>
<path d="M678.936 0C687.739 0 695.431 1.99218 702.01 5.97655C708.683 9.96091 713.826 15.7521 717.44 23.3502C721.147 30.8557 723 39.8436 723 50.3142C723 60.5067 721.1 69.541 717.301 77.4171C713.594 85.2932 708.358 91.4087 701.593 95.7637C694.921 100.119 687.322 102.296 678.797 102.296C669.993 102.296 662.255 100.304 655.583 96.3197C649.003 92.3353 643.86 86.5904 640.153 79.085C636.539 71.4869 634.732 62.4526 634.732 51.9821C634.732 41.7895 636.586 32.7552 640.292 24.8791C644.092 17.003 649.328 10.8875 656 6.53251C662.765 2.1775 670.41 0 678.936 0ZM678.38 2.50181C672.449 2.50181 667.213 4.58665 662.672 8.75634C658.224 12.8334 654.749 18.5783 652.247 25.991C649.837 33.4038 648.633 41.8822 648.633 51.4261C648.633 61.0627 649.976 69.541 652.664 76.8612C655.444 84.1813 659.151 89.8335 663.784 93.8179C668.418 97.8022 673.607 99.7944 679.353 99.7944C685.283 99.7944 690.473 97.7559 694.921 93.6789C699.462 89.5092 702.937 83.718 705.346 76.3052C707.849 68.8924 709.1 60.4141 709.1 50.8701C709.1 41.2335 707.71 32.7552 704.929 25.4351C702.242 18.115 698.582 12.4627 693.948 8.47836C689.315 4.49399 684.125 2.50181 678.38 2.50181Z" fill="#F4E9D0"/>
<path d="M146.105 128.38C147.495 128.38 148.677 128.577 149.65 128.971C150.623 129.364 151.573 129.92 152.499 130.638C152.754 130.847 152.974 130.951 153.16 130.951C153.623 130.951 153.924 130.256 154.063 128.866H154.862C154.77 130.372 154.723 133.036 154.723 136.858H153.924C153.669 135.353 153.438 134.275 153.229 133.627C153.021 132.955 152.673 132.318 152.187 131.716C151.492 130.812 150.6 130.14 149.511 129.7C148.445 129.237 147.287 129.005 146.036 129.005C144.53 129.005 143.209 129.503 142.074 130.499C140.962 131.496 140.093 132.92 139.468 134.773C138.842 136.603 138.529 138.758 138.529 141.236C138.529 143.761 138.865 145.927 139.537 147.734C140.209 149.541 141.136 150.919 142.317 151.869C143.522 152.796 144.877 153.259 146.383 153.259C147.542 153.259 148.665 153.039 149.754 152.599C150.843 152.159 151.7 151.498 152.326 150.618C152.789 149.97 153.125 149.275 153.333 148.533C153.542 147.792 153.739 146.657 153.924 145.128H154.723C154.723 149.112 154.77 151.892 154.862 153.467H154.063C153.994 152.726 153.889 152.205 153.75 151.904C153.635 151.58 153.461 151.417 153.229 151.417C153.044 151.417 152.801 151.51 152.499 151.695C151.457 152.437 150.461 153.004 149.511 153.398C148.561 153.769 147.414 153.954 146.07 153.954C143.87 153.954 141.935 153.456 140.267 152.46C138.622 151.464 137.336 150.028 136.41 148.151C135.506 146.252 135.054 143.993 135.054 141.375C135.054 138.827 135.518 136.569 136.444 134.6C137.394 132.631 138.703 131.102 140.371 130.013C142.062 128.924 143.974 128.38 146.105 128.38Z" fill="#F4E9D0"/>
<path d="M186.416 129.561C185.605 129.608 185.002 129.735 184.609 129.944C184.215 130.129 183.948 130.453 183.809 130.916C183.67 131.357 183.601 132.017 183.601 132.897V143.356C183.601 145.024 183.485 146.46 183.253 147.665C183.045 148.846 182.686 149.865 182.176 150.722C181.597 151.719 180.74 152.506 179.604 153.085C178.492 153.664 177.23 153.954 175.817 153.954C173.268 153.954 171.322 153.329 169.978 152.078C168.959 151.128 168.276 150.051 167.928 148.846C167.581 147.642 167.407 145.846 167.407 143.46V132.55C167.407 131.669 167.337 131.032 167.198 130.638C167.059 130.245 166.793 129.978 166.399 129.839C166.028 129.7 165.426 129.608 164.592 129.561V128.866C165.565 128.936 167.048 128.971 169.04 128.971C170.917 128.971 172.388 128.936 173.453 128.866V129.561C172.619 129.608 172.006 129.7 171.612 129.839C171.241 129.978 170.986 130.245 170.847 130.638C170.708 131.032 170.639 131.669 170.639 132.55V144.051C170.639 145.904 170.766 147.445 171.021 148.672C171.276 149.9 171.797 150.885 172.585 151.626C173.396 152.367 174.577 152.738 176.129 152.738C178.585 152.738 180.311 151.95 181.307 150.375C182.303 148.8 182.802 146.588 182.802 143.738V132.897C182.802 131.646 182.57 130.789 182.107 130.326C181.666 129.862 180.844 129.608 179.639 129.561V128.866C180.473 128.936 181.655 128.971 183.184 128.971C184.574 128.971 185.651 128.936 186.416 128.866V129.561Z" fill="#F4E9D0"/>
<path d="M204.178 129.561C203.344 129.608 202.73 129.7 202.337 129.839C201.966 129.978 201.711 130.245 201.572 130.638C201.433 131.032 201.364 131.669 201.364 132.55V149.784C201.364 150.665 201.433 151.302 201.572 151.695C201.711 152.089 201.966 152.356 202.337 152.495C202.73 152.634 203.344 152.726 204.178 152.773V153.467C203.113 153.398 201.642 153.363 199.765 153.363C197.773 153.363 196.29 153.398 195.317 153.467V152.773C196.151 152.726 196.753 152.634 197.124 152.495C197.518 152.356 197.784 152.089 197.923 151.695C198.062 151.302 198.132 150.665 198.132 149.784V132.55C198.132 131.669 198.062 131.032 197.923 130.638C197.784 130.245 197.518 129.978 197.124 129.839C196.753 129.7 196.151 129.608 195.317 129.561V128.866C196.29 128.936 197.773 128.971 199.765 128.971C201.618 128.971 203.089 128.936 204.178 128.866V129.561Z" fill="#F4E9D0"/>
<path d="M221.045 128.484C222.065 128.484 222.864 128.6 223.443 128.832C224.046 129.04 224.66 129.353 225.285 129.77C225.795 130.094 226.189 130.256 226.467 130.256C226.675 130.256 226.837 130.14 226.953 129.909C227.069 129.654 227.162 129.26 227.231 128.727H228.03C227.915 130.071 227.857 132.434 227.857 135.816H227.057C226.918 133.939 226.374 132.364 225.424 131.09C224.497 129.793 223.142 129.144 221.358 129.144C220.107 129.144 219.088 129.527 218.3 130.291C217.512 131.032 217.119 131.994 217.119 133.175C217.119 134.055 217.315 134.82 217.709 135.468C218.126 136.117 218.648 136.673 219.273 137.136C219.899 137.6 220.791 138.19 221.949 138.908L222.957 139.534C224.416 140.437 225.563 141.236 226.397 141.931C227.254 142.603 227.938 143.379 228.447 144.259C228.957 145.14 229.212 146.171 229.212 147.352C229.212 149.46 228.517 151.093 227.127 152.251C225.737 153.386 223.976 153.954 221.845 153.954C220.733 153.954 219.818 153.838 219.099 153.606C218.404 153.375 217.732 153.062 217.084 152.668C216.574 152.344 216.18 152.182 215.902 152.182C215.694 152.182 215.532 152.309 215.416 152.564C215.3 152.796 215.207 153.178 215.138 153.711H214.338C214.431 152.437 214.477 149.657 214.477 145.371H215.277C215.439 147.711 216.018 149.611 217.014 151.07C218.01 152.529 219.54 153.259 221.601 153.259C222.852 153.259 223.918 152.877 224.799 152.112C225.679 151.325 226.119 150.166 226.119 148.638C226.119 147.34 225.679 146.24 224.799 145.337C223.941 144.433 222.574 143.414 220.698 142.279C219.331 141.445 218.219 140.704 217.362 140.055C216.528 139.406 215.844 138.63 215.311 137.727C214.779 136.8 214.512 135.723 214.512 134.495C214.512 132.55 215.138 131.067 216.389 130.048C217.64 129.005 219.192 128.484 221.045 128.484Z" fill="#F4E9D0"/>
<path d="M247.753 129.561C246.919 129.608 246.305 129.7 245.911 129.839C245.54 129.978 245.286 130.245 245.147 130.638C245.008 131.032 244.938 131.669 244.938 132.55V149.784C244.938 150.665 245.008 151.302 245.147 151.695C245.286 152.089 245.54 152.356 245.911 152.495C246.305 152.634 246.919 152.726 247.753 152.773V153.467C246.687 153.398 245.216 153.363 243.34 153.363C241.347 153.363 239.864 153.398 238.891 153.467V152.773C239.725 152.726 240.328 152.634 240.699 152.495C241.092 152.356 241.359 152.089 241.498 151.695C241.637 151.302 241.706 150.665 241.706 149.784V132.55C241.706 131.669 241.637 131.032 241.498 130.638C241.359 130.245 241.092 129.978 240.699 129.839C240.328 129.7 239.725 129.608 238.891 129.561V128.866C239.864 128.936 241.347 128.971 243.34 128.971C245.193 128.971 246.664 128.936 247.753 128.866V129.561Z" fill="#F4E9D0"/>
<path d="M279.007 129.561C278.196 129.608 277.594 129.735 277.2 129.944C276.806 130.129 276.54 130.453 276.401 130.916C276.262 131.357 276.192 132.017 276.192 132.897V153.641H275.393L260.797 131.09V149.437C260.797 150.34 260.867 151.012 261.006 151.452C261.168 151.892 261.469 152.217 261.909 152.425C262.35 152.61 263.033 152.726 263.96 152.773V153.467C263.126 153.398 261.944 153.363 260.415 153.363C259.025 153.363 257.948 153.398 257.183 153.467V152.773C257.994 152.726 258.596 152.61 258.99 152.425C259.384 152.217 259.651 151.892 259.79 151.452C259.929 150.989 259.998 150.317 259.998 149.437V132.55C259.998 131.669 259.929 131.032 259.79 130.638C259.651 130.245 259.384 129.978 258.99 129.839C258.62 129.7 258.017 129.608 257.183 129.561V128.866C257.948 128.936 259.025 128.971 260.415 128.971C261.458 128.971 262.361 128.936 263.126 128.866L275.393 147.769V132.897C275.393 131.994 275.312 131.322 275.15 130.882C275.011 130.442 274.721 130.129 274.281 129.944C273.841 129.735 273.157 129.608 272.231 129.561V128.866C273.065 128.936 274.246 128.971 275.775 128.971C277.165 128.971 278.242 128.936 279.007 128.866V129.561Z" fill="#F4E9D0"/>
<path d="M306.028 149.02C306.028 150.34 306.109 151.823 306.271 153.467C304.696 153.398 302.043 153.363 298.313 153.363C293.865 153.363 290.506 153.398 288.235 153.467V152.773C289.069 152.726 289.672 152.634 290.042 152.495C290.436 152.356 290.703 152.089 290.842 151.695C290.981 151.302 291.05 150.665 291.05 149.784V132.55C291.05 131.669 290.981 131.032 290.842 130.638C290.703 130.245 290.436 129.978 290.042 129.839C289.672 129.7 289.069 129.608 288.235 129.561V128.866C290.506 128.936 293.865 128.971 298.313 128.971C301.719 128.971 304.14 128.936 305.576 128.866C305.414 130.395 305.333 131.762 305.333 132.967C305.333 133.87 305.368 134.588 305.437 135.121H304.638C304.476 133.615 304.267 132.503 304.012 131.785C303.757 131.044 303.329 130.511 302.727 130.187C302.124 129.839 301.209 129.666 299.981 129.666H297.097C296.263 129.666 295.649 129.735 295.255 129.874C294.884 129.99 294.63 130.245 294.491 130.638C294.352 131.032 294.282 131.669 294.282 132.55V140.75H296.576C297.386 140.75 298.012 140.565 298.452 140.194C298.892 139.8 299.182 139.348 299.321 138.839C299.483 138.306 299.611 137.646 299.703 136.858L299.807 136.163H300.607C300.537 137.136 300.502 138.225 300.502 139.43V141.097C300.502 142.279 300.572 143.924 300.711 146.032H299.912C299.888 145.869 299.819 145.313 299.703 144.364C299.587 143.391 299.263 142.661 298.73 142.175C298.22 141.688 297.502 141.445 296.576 141.445H294.282V149.784C294.282 150.665 294.352 151.302 294.491 151.695C294.63 152.089 294.884 152.356 295.255 152.495C295.649 152.61 296.263 152.668 297.097 152.668H299.634C301.07 152.668 302.159 152.483 302.9 152.112C303.665 151.719 304.221 151.105 304.568 150.271C304.916 149.414 305.171 148.163 305.333 146.518H306.132C306.063 147.143 306.028 147.977 306.028 149.02Z" fill="#F4E9D0"/>
<path d="M363.608 128.866C363.446 130.511 363.364 131.994 363.364 133.314C363.364 134.472 363.399 135.422 363.469 136.163H362.669C362.484 134.38 362.252 133.059 361.974 132.202C361.696 131.322 361.21 130.685 360.515 130.291C359.82 129.874 358.754 129.666 357.318 129.666H355.128C354.294 129.666 353.68 129.735 353.287 129.874C352.916 129.99 352.661 130.245 352.522 130.638C352.383 131.032 352.314 131.669 352.314 132.55V141.097H354.85C355.661 141.097 356.287 140.912 356.727 140.541C357.167 140.148 357.457 139.696 357.596 139.186C357.758 138.654 357.885 137.993 357.978 137.206L358.082 136.511H358.882C358.812 137.484 358.777 138.572 358.777 139.777V141.445C358.777 142.626 358.847 144.271 358.986 146.379H358.187C358.163 146.217 358.094 145.661 357.978 144.711C357.862 143.738 357.538 143.009 357.005 142.522C356.495 142.036 355.777 141.792 354.85 141.792H352.314V149.784C352.314 150.665 352.406 151.302 352.592 151.695C352.777 152.089 353.101 152.356 353.565 152.495C354.028 152.634 354.781 152.726 355.823 152.773V153.467C354.619 153.398 352.916 153.363 350.715 153.363C348.723 153.363 347.24 153.398 346.267 153.467V152.773C347.101 152.726 347.703 152.634 348.074 152.495C348.468 152.356 348.734 152.089 348.873 151.695C349.012 151.302 349.082 150.665 349.082 149.784V132.55C349.082 131.669 349.012 131.032 348.873 130.638C348.734 130.245 348.468 129.978 348.074 129.839C347.703 129.7 347.101 129.608 346.267 129.561V128.866C348.537 128.936 351.897 128.971 356.345 128.971C359.75 128.971 362.171 128.936 363.608 128.866Z" fill="#F4E9D0"/>
<path d="M394.044 151.73C393.511 152.518 392.978 153.085 392.445 153.433C391.913 153.78 391.206 153.954 390.326 153.954C389.376 153.954 388.588 153.676 387.963 153.12C387.36 152.564 386.908 151.591 386.607 150.201L385.843 146.727C385.565 145.522 385.298 144.595 385.043 143.947C384.812 143.298 384.453 142.777 383.966 142.383C383.48 141.989 382.796 141.792 381.916 141.792H378.615V149.784C378.615 150.665 378.684 151.302 378.823 151.695C378.962 152.089 379.217 152.356 379.588 152.495C379.981 152.634 380.595 152.726 381.429 152.773V153.467C380.364 153.398 378.892 153.363 377.016 153.363C375.024 153.363 373.541 153.398 372.568 153.467V152.773C373.402 152.726 374.004 152.634 374.375 152.495C374.769 152.356 375.035 152.089 375.174 151.695C375.313 151.302 375.383 150.665 375.383 149.784V132.55C375.383 131.669 375.313 131.032 375.174 130.638C375.035 130.245 374.769 129.978 374.375 129.839C374.004 129.7 373.402 129.608 372.568 129.561V128.866C373.541 128.936 374.954 128.971 376.807 128.971L380.561 128.936C381.001 128.913 381.499 128.901 382.055 128.901C384.742 128.901 386.804 129.469 388.241 130.604C389.7 131.716 390.43 133.163 390.43 134.947C390.43 135.851 390.21 136.766 389.77 137.692C389.353 138.596 388.634 139.418 387.615 140.159C386.619 140.877 385.31 141.364 383.688 141.619L384.105 141.688C385.634 141.943 386.746 142.406 387.441 143.078C388.136 143.75 388.646 144.815 388.97 146.275L389.839 149.819C390.071 150.885 390.314 151.626 390.569 152.043C390.824 152.46 391.171 152.668 391.611 152.668C392.005 152.668 392.33 152.564 392.584 152.356C392.862 152.147 393.175 151.811 393.523 151.348L394.044 151.73ZM381.186 129.561C380.468 129.561 379.923 129.642 379.553 129.805C379.205 129.967 378.962 130.256 378.823 130.673C378.684 131.09 378.615 131.716 378.615 132.55V141.097H380.943C383.236 141.097 384.812 140.588 385.669 139.569C386.526 138.549 386.955 137.136 386.955 135.329C386.955 133.43 386.503 131.994 385.599 131.021C384.696 130.048 383.225 129.561 381.186 129.561Z" fill="#F4E9D0"/>
<path d="M419.862 150.549C420.418 151.985 421.217 152.726 422.26 152.773V153.467C421.333 153.398 420.094 153.363 418.541 153.363C416.549 153.363 415.066 153.398 414.093 153.467V152.773C414.974 152.726 415.599 152.622 415.97 152.46C416.364 152.274 416.561 151.95 416.561 151.487C416.561 151.093 416.422 150.549 416.143 149.854L414.024 144.155H405.614L404.189 147.838C403.726 149.089 403.494 150.039 403.494 150.688C403.494 151.406 403.737 151.927 404.224 152.251C404.734 152.576 405.498 152.749 406.517 152.773V153.467C405.197 153.398 403.865 153.363 402.521 153.363C401.479 153.363 400.61 153.398 399.915 153.467V152.773C401.073 152.495 401.988 151.487 402.66 149.75L410.827 128.693H411.383L419.862 150.549ZM413.746 143.46L409.854 133.071L405.892 143.46H413.746Z" fill="#F4E9D0"/>
<path d="M451.167 129.561C450.357 129.608 449.754 129.735 449.36 129.944C448.967 130.129 448.7 130.453 448.561 130.916C448.422 131.357 448.353 132.017 448.353 132.897V153.641H447.553L432.958 131.09V149.437C432.958 150.34 433.027 151.012 433.166 151.452C433.329 151.892 433.63 152.217 434.07 152.425C434.51 152.61 435.194 152.726 436.12 152.773V153.467C435.286 153.398 434.105 153.363 432.576 153.363C431.186 153.363 430.108 153.398 429.344 153.467V152.773C430.155 152.726 430.757 152.61 431.151 152.425C431.545 152.217 431.811 151.892 431.95 151.452C432.089 150.989 432.159 150.317 432.159 149.437V132.55C432.159 131.669 432.089 131.032 431.95 130.638C431.811 130.245 431.545 129.978 431.151 129.839C430.78 129.7 430.178 129.608 429.344 129.561V128.866C430.108 128.936 431.186 128.971 432.576 128.971C433.618 128.971 434.522 128.936 435.286 128.866L447.553 147.769V132.897C447.553 131.994 447.472 131.322 447.31 130.882C447.171 130.442 446.882 130.129 446.441 129.944C446.001 129.735 445.318 129.608 444.391 129.561V128.866C445.225 128.936 446.407 128.971 447.936 128.971C449.326 128.971 450.403 128.936 451.167 128.866V129.561Z" fill="#F4E9D0"/>
<path d="M471.591 128.38C472.981 128.38 474.163 128.577 475.136 128.971C476.109 129.364 477.059 129.92 477.986 130.638C478.24 130.847 478.46 130.951 478.646 130.951C479.109 130.951 479.41 130.256 479.549 128.866H480.349C480.256 130.372 480.21 133.036 480.21 136.858H479.41C479.155 135.353 478.924 134.275 478.715 133.627C478.507 132.955 478.159 132.318 477.673 131.716C476.978 130.812 476.086 130.14 474.997 129.7C473.931 129.237 472.773 129.005 471.522 129.005C470.016 129.005 468.695 129.503 467.56 130.499C466.448 131.496 465.579 132.92 464.954 134.773C464.328 136.603 464.016 138.758 464.016 141.236C464.016 143.761 464.352 145.927 465.023 147.734C465.695 149.541 466.622 150.919 467.803 151.869C469.008 152.796 470.363 153.259 471.869 153.259C473.028 153.259 474.151 153.039 475.24 152.599C476.329 152.159 477.186 151.498 477.812 150.618C478.275 149.97 478.611 149.275 478.82 148.533C479.028 147.792 479.225 146.657 479.41 145.128H480.21C480.21 149.112 480.256 151.892 480.349 153.467H479.549C479.48 152.726 479.376 152.205 479.237 151.904C479.121 151.58 478.947 151.417 478.715 151.417C478.53 151.417 478.287 151.51 477.986 151.695C476.943 152.437 475.947 153.004 474.997 153.398C474.047 153.769 472.9 153.954 471.557 153.954C469.356 153.954 467.421 153.456 465.753 152.46C464.108 151.464 462.822 150.028 461.896 148.151C460.992 146.252 460.54 143.993 460.54 141.375C460.54 138.827 461.004 136.569 461.931 134.6C462.88 132.631 464.189 131.102 465.857 130.013C467.549 128.924 469.46 128.38 471.591 128.38ZM471.174 155.969C471.869 155.807 472.553 155.726 473.225 155.726C473.873 155.726 474.383 155.865 474.754 156.143C475.148 156.444 475.344 156.85 475.344 157.359C475.344 158.239 474.939 158.9 474.128 159.34C473.317 159.78 472.414 160 471.418 160C470.259 160 469.298 159.873 468.533 159.618L468.672 158.992C469.159 159.062 469.599 159.097 469.993 159.097C470.827 159.097 471.557 158.969 472.182 158.714C472.808 158.483 473.12 158.089 473.12 157.533C473.12 156.884 472.634 156.56 471.661 156.56C471.012 156.56 470.445 156.641 469.958 156.803L471.14 153.294H472.078L471.174 155.969Z" fill="#F4E9D0"/>
<path d="M508.844 150.549C509.4 151.985 510.199 152.726 511.242 152.773V153.467C510.315 153.398 509.075 153.363 507.523 153.363C505.531 153.363 504.048 153.398 503.075 153.467V152.773C503.955 152.726 504.581 152.622 504.952 152.46C505.345 152.274 505.542 151.95 505.542 151.487C505.542 151.093 505.403 150.549 505.125 149.854L503.006 144.155H494.596L493.171 147.838C492.708 149.089 492.476 150.039 492.476 150.688C492.476 151.406 492.719 151.927 493.206 152.251C493.715 152.576 494.48 152.749 495.499 152.773V153.467C494.179 153.398 492.847 153.363 491.503 153.363C490.46 153.363 489.592 153.398 488.897 153.467V152.773C490.055 152.495 490.97 151.487 491.642 149.75L499.808 128.693H500.364L508.844 150.549ZM502.727 143.46L498.835 133.071L494.874 143.46H502.727Z" fill="#F4E9D0"/>
<path d="M527.187 129.561C526.353 129.608 525.739 129.7 525.345 129.839C524.975 129.978 524.72 130.245 524.581 130.638C524.442 131.032 524.372 131.669 524.372 132.55V149.784C524.372 150.665 524.442 151.302 524.581 151.695C524.72 152.089 524.975 152.356 525.345 152.495C525.739 152.634 526.353 152.726 527.187 152.773V153.467C526.121 153.398 524.65 153.363 522.774 153.363C520.781 153.363 519.299 153.398 518.326 153.467V152.773C519.16 152.726 519.762 152.634 520.133 152.495C520.526 152.356 520.793 152.089 520.932 151.695C521.071 151.302 521.14 150.665 521.14 149.784V132.55C521.14 131.669 521.071 131.032 520.932 130.638C520.793 130.245 520.526 129.978 520.133 129.839C519.762 129.7 519.16 129.608 518.326 129.561V128.866C519.299 128.936 520.781 128.971 522.774 128.971C524.627 128.971 526.098 128.936 527.187 128.866V129.561Z" fill="#F4E9D0"/>
<path d="M544.054 128.484C545.074 128.484 545.873 128.6 546.452 128.832C547.054 129.04 547.668 129.353 548.294 129.77C548.803 130.094 549.197 130.256 549.475 130.256C549.684 130.256 549.846 130.14 549.962 129.909C550.078 129.654 550.17 129.26 550.24 128.727H551.039C550.923 130.071 550.865 132.434 550.865 135.816H550.066C549.927 133.939 549.383 132.364 548.433 131.09C547.506 129.793 546.151 129.144 544.367 129.144C543.116 129.144 542.096 129.527 541.309 130.291C540.521 131.032 540.127 131.994 540.127 133.175C540.127 134.055 540.324 134.82 540.718 135.468C541.135 136.117 541.656 136.673 542.282 137.136C542.907 137.6 543.799 138.19 544.958 138.908L545.965 139.534C547.425 140.437 548.572 141.236 549.406 141.931C550.263 142.603 550.946 143.379 551.456 144.259C551.966 145.14 552.221 146.171 552.221 147.352C552.221 149.46 551.526 151.093 550.136 152.251C548.746 153.386 546.985 153.954 544.853 153.954C543.741 153.954 542.826 153.838 542.108 153.606C541.413 153.375 540.741 153.062 540.093 152.668C539.583 152.344 539.189 152.182 538.911 152.182C538.703 152.182 538.54 152.309 538.424 152.564C538.309 152.796 538.216 153.178 538.146 153.711H537.347C537.44 152.437 537.486 149.657 537.486 145.371H538.285C538.448 147.711 539.027 149.611 540.023 151.07C541.019 152.529 542.548 153.259 544.61 153.259C545.861 153.259 546.927 152.877 547.807 152.112C548.688 151.325 549.128 150.166 549.128 148.638C549.128 147.34 548.688 146.24 547.807 145.337C546.95 144.433 545.583 143.414 543.707 142.279C542.34 141.445 541.228 140.704 540.371 140.055C539.537 139.406 538.853 138.63 538.32 137.727C537.787 136.8 537.521 135.723 537.521 134.495C537.521 132.55 538.146 131.067 539.398 130.048C540.649 129.005 542.201 128.484 544.054 128.484Z" fill="#F4E9D0"/>
<path d="M579.693 149.02C579.693 150.34 579.774 151.823 579.936 153.467C578.361 153.398 575.708 153.363 571.978 153.363C567.53 153.363 564.171 153.398 561.9 153.467V152.773C562.734 152.726 563.337 152.634 563.707 152.495C564.101 152.356 564.367 152.089 564.507 151.695C564.646 151.302 564.715 150.665 564.715 149.784V132.55C564.715 131.669 564.646 131.032 564.507 130.638C564.367 130.245 564.101 129.978 563.707 129.839C563.337 129.7 562.734 129.608 561.9 129.561V128.866C564.171 128.936 567.53 128.971 571.978 128.971C575.384 128.971 577.805 128.936 579.241 128.866C579.079 130.395 578.998 131.762 578.998 132.967C578.998 133.87 579.032 134.588 579.102 135.121H578.303C578.141 133.615 577.932 132.503 577.677 131.785C577.422 131.044 576.994 130.511 576.391 130.187C575.789 129.839 574.874 129.666 573.646 129.666H570.762C569.928 129.666 569.314 129.735 568.92 129.874C568.549 129.99 568.294 130.245 568.155 130.638C568.016 131.032 567.947 131.669 567.947 132.55V140.75H570.24C571.051 140.75 571.677 140.565 572.117 140.194C572.557 139.8 572.847 139.348 572.986 138.839C573.148 138.306 573.275 137.646 573.368 136.858L573.472 136.163H574.272C574.202 137.136 574.167 138.225 574.167 139.43V141.097C574.167 142.279 574.237 143.924 574.376 146.032H573.577C573.553 145.869 573.484 145.313 573.368 144.364C573.252 143.391 572.928 142.661 572.395 142.175C571.885 141.688 571.167 141.445 570.24 141.445H567.947V149.784C567.947 150.665 568.016 151.302 568.155 151.695C568.294 152.089 568.549 152.356 568.92 152.495C569.314 152.61 569.928 152.668 570.762 152.668H573.299C574.735 152.668 575.824 152.483 576.565 152.112C577.33 151.719 577.886 151.105 578.233 150.271C578.581 149.414 578.836 148.163 578.998 146.518H579.797C579.728 147.143 579.693 147.977 579.693 149.02Z" fill="#F4E9D0"/>
<path d="M133.213 124.511H308.899V125.477H133.213V124.511Z" fill="#F4E9D0"/>
<path d="M343.65 124.511H583.046V125.477H343.65V124.511Z" fill="#F4E9D0"/>
</svg>
