<svg width="89" height="106" viewBox="0 0 89 106" fill="none" xmlns="http://www.w3.org/2000/svg">
<path d="M46.368 0C52.032 0 56.688 0.816001 60.336 2.448C63.984 3.98401 67.968 6.28801 72.288 9.36001C73.536 10.32 74.496 10.8 75.168 10.8C76.992 10.8 78.192 7.87201 78.768 2.01601H82.08C81.696 8.25601 81.504 19.296 81.504 35.136H78.192C77.328 30.048 76.416 25.872 75.456 22.608C74.496 19.248 73.008 16.32 70.992 13.824C68.208 10.368 64.56 7.632 60.048 5.616C55.632 3.6 50.976 2.592 46.08 2.592C39.744 2.592 34.176 4.656 29.376 8.78401C24.576 12.912 20.88 18.816 18.288 26.496C15.696 34.08 14.4 42.96 14.4 53.136C14.4 70.416 17.136 83.088 22.608 91.152C28.176 99.12 36.864 103.104 48.672 103.104C54.432 103.104 59.424 101.616 63.648 98.64C65.376 97.488 66.48 96.384 66.96 95.328C67.536 94.176 67.824 92.64 67.824 90.72V76.896C67.824 72.864 67.44 69.936 66.672 68.112C65.904 66.288 64.56 65.04 62.64 64.368C60.72 63.696 57.6 63.264 53.28 63.072V60.192C58.272 60.48 65.04 60.624 73.584 60.624C80.112 60.624 85.104 60.48 88.56 60.192V63.072C86.352 63.264 84.72 63.648 83.664 64.224C82.704 64.8 82.032 65.904 81.648 67.536C81.36 69.168 81.216 71.808 81.216 75.456V103.968H78.336C78.24 102.048 77.856 100.224 77.184 98.496C76.512 96.672 75.6 95.76 74.448 95.76C73.872 95.76 73.296 95.904 72.72 96.192C72.144 96.48 71.136 97.152 69.696 98.208C66.336 100.8 62.832 102.72 59.184 103.968C55.632 105.312 51.648 105.984 47.232 105.984C37.344 105.984 28.848 103.968 21.744 99.936C14.736 95.808 9.36 89.904 5.616 82.224C1.872 74.544 0 65.376 0 54.72C0 43.776 1.968 34.176 5.904 25.92C9.936 17.568 15.456 11.184 22.464 6.76801C29.472 2.256 37.44 0 46.368 0Z" fill="#382703"/>
</svg>
